<?xml version="1.0" encoding="UTF-8" standalone="no"?>
<!DOCTYPE svg PUBLIC "-//W3C//DTD SVG 1.1//EN" "http://www.w3.org/Graphics/SVG/1.1/DTD/svg11.dtd">
<svg width="100%" height="100%" viewBox="0 0 212 252" version="1.1" xmlns="http://www.w3.org/2000/svg" xmlns:xlink="http://www.w3.org/1999/xlink" xml:space="preserve" xmlns:serif="http://www.serif.com/" style="fill-rule:evenodd;clip-rule:evenodd;">
    <g transform="matrix(1,0,0,1,-99.7935,-387.278)">
        <g transform="matrix(1,0,0,1,0.211097,33.6908)">
            <path d="M306.79,423.15C306.6,420.18 306.51,417.75 304.21,415.81C303.05,414.83 300.2,413.013 295.66,410.36C290.18,407.153 279.187,400.53 262.68,390.49C251.507,383.697 243.953,379.17 240.02,376.91C232.707,372.71 225.087,368.303 217.16,363.69C211.17,360.2 206.14,355.04 198.88,359.35C186.54,366.677 173.33,374.87 159.25,383.93C144.357,393.523 133.977,400.067 128.11,403.56C117.957,409.613 110.883,414.06 106.89,416.9C104.26,418.78 103.76,422.97 103.93,425.76C104.037,427.593 103.983,447.48 103.77,485.42C103.637,508.827 103.71,524.86 103.99,533.52C104.117,537.633 106.213,540.87 110.28,543.23C133.24,556.55 163.093,574.86 199.84,598.16C205.59,601.81 208.95,600.96 214.66,597.52C218.313,595.313 228.7,588.837 245.82,578.09C254.8,572.457 272.38,561.697 298.56,545.81C302.54,543.39 305.74,541.83 306.64,538.08C306.987,536.64 307.157,534.16 307.15,530.64C307.083,495.64 307.057,466.273 307.07,442.54C307.07,432.6 306.977,426.137 306.79,423.15" style="fill:none;fill-rule:nonzero;stroke:rgb(21,22,20);stroke-width:2px;"/>
            <path d="M305.58,423.89C305.4,420.96 305.31,418.56 303.04,416.64C301.893,415.673 299.077,413.877 294.59,411.25C289.177,408.083 278.313,401.537 262,391.61C250.96,384.897 243.497,380.423 239.61,378.19C232.383,374.037 224.853,369.68 217.02,365.12C211.1,361.67 206.13,356.57 198.96,360.83C186.767,368.07 173.71,376.163 159.79,385.11C145.077,394.59 134.82,401.057 129.02,404.51C118.987,410.49 111.997,414.883 108.05,417.69C105.45,419.54 104.96,423.69 105.12,426.44C105.227,428.253 105.173,447.907 104.96,485.4C104.82,508.527 104.89,524.37 105.17,532.93C105.29,536.997 107.36,540.193 111.38,542.52C134.067,555.687 163.563,573.787 199.87,596.82C205.56,600.43 208.88,599.59 214.52,596.19C218.133,594.01 228.397,587.61 245.31,576.99C254.19,571.423 271.563,560.793 297.43,545.1C301.37,542.71 304.53,541.17 305.42,537.46C305.76,536.04 305.93,533.59 305.93,530.11C305.863,495.523 305.84,466.503 305.86,443.05C305.86,433.23 305.767,426.843 305.58,423.89" style="fill:none;fill-rule:nonzero;stroke:rgb(129,128,126);stroke-width:2px;"/>
            <path d="M118.82,420.85C118.784,420.87 118.751,420.895 118.722,420.924C118.537,421.105 118.531,421.401 118.708,421.582C118.738,421.613 118.772,421.639 118.81,421.66C128.303,427.073 137.497,432.537 146.39,438.05C147.99,439.04 149.46,438.93 150.93,437.95C166.323,427.717 182.16,417.977 198.44,408.73C199.427,408.17 199.93,407.183 199.95,405.77C200.11,392.537 200.097,381.107 199.91,371.48C199.899,371.098 199.582,370.79 199.2,370.79C199.066,370.79 198.934,370.828 198.82,370.9C193.7,374.193 176.707,385.003 147.84,403.33C136.813,410.323 127.14,416.163 118.82,420.85" style="fill:none;fill-rule:nonzero;stroke:rgb(129,128,126);stroke-width:2px;"/>
            <path d="M291.8,420.94C291.939,420.86 292.026,420.711 292.026,420.55C292.026,420.389 291.939,420.24 291.8,420.16L209.71,371.43C209.64,371.389 209.561,371.367 209.48,371.367C209.233,371.367 209.03,371.57 209.03,371.817C209.03,371.818 209.03,371.819 209.03,371.82L209.03,406.6C209.031,406.762 209.119,406.911 209.26,406.99L263.39,437.53C263.529,437.61 263.701,437.61 263.84,437.53L291.8,420.94" style="fill:none;fill-rule:nonzero;stroke:rgb(129,128,126);stroke-width:2px;"/>
            <path d="M157.93,444.91L205.82,473.34C206.539,473.763 207.436,473.751 208.14,473.31L254.26,444.18C254.316,444.145 254.368,444.103 254.414,444.056C254.719,443.739 254.706,443.226 254.385,442.917C254.338,442.872 254.286,442.833 254.23,442.8C240.463,434.98 227.39,427.723 215.01,421.03C212.043,419.43 209.093,417.977 206.16,416.67C204.84,416.083 203.687,416.083 202.7,416.67C190.067,424.163 175.14,433.407 157.92,444.4C157.835,444.455 157.783,444.55 157.783,444.652C157.783,444.758 157.839,444.856 157.93,444.91" style="fill:none;fill-rule:nonzero;stroke:rgb(129,128,126);stroke-width:2px;"/>
            <path d="M296.91,527.59L296.91,429.53C296.906,429.237 296.663,428.998 296.37,428.998C296.275,428.998 296.182,429.023 296.1,429.07L270.43,444.3C269.823,444.66 269.45,445.315 269.45,446.02C269.56,466.55 269.09,489 269.89,510.21C269.921,511.004 270.345,511.732 271.02,512.15L296.6,527.77C296.617,527.781 296.635,527.789 296.654,527.794C296.759,527.823 296.872,527.756 296.902,527.645C296.907,527.627 296.91,527.608 296.91,527.59" style="fill:none;fill-rule:nonzero;stroke:rgb(129,128,126);stroke-width:2px;"/>
            <path d="M114.23,430.12L114.23,528.63C114.23,528.63 114.23,528.63 114.23,528.63C114.23,528.729 114.311,528.81 114.41,528.81C114.446,528.81 114.48,528.8 114.51,528.78C115.53,528.14 116.46,527.13 117.85,526.17C125.517,520.903 133.04,516.08 140.42,511.7C142.113,510.693 142.96,509.613 142.96,508.46C142.94,495.12 143.077,475.077 143.37,448.33C143.382,447.353 142.866,446.44 142.02,445.94L114.82,429.79C114.76,429.754 114.69,429.735 114.62,429.735C114.408,429.735 114.233,429.908 114.23,430.12" style="fill:none;fill-rule:nonzero;stroke:rgb(129,128,126);stroke-width:2px;"/>
            <path d="M260.08,451.1C255.593,454.233 250.93,457.31 246.09,460.33C235.53,466.917 225.03,473.493 214.59,480.06C213.46,480.77 212,481.65 211.92,482.99C211.74,486.17 211.65,488.68 211.65,490.52C211.65,520.88 211.637,537.05 211.61,539.03C211.61,539.031 211.61,539.033 211.61,539.034C211.61,539.232 211.772,539.394 211.97,539.394C212.037,539.394 212.103,539.375 212.16,539.34C227.413,529.6 243.297,520.133 259.81,510.94C260.385,510.616 260.73,509.996 260.7,509.34C259.813,490.013 259.853,470.737 260.82,451.51C260.82,451.501 260.821,451.493 260.821,451.484C260.821,451.226 260.609,451.014 260.351,451.014C260.254,451.014 260.159,451.044 260.08,451.1" style="fill:none;fill-rule:nonzero;stroke:rgb(129,128,126);stroke-width:2px;"/>
            <path d="M152.48,509.06C152.479,509.327 152.615,509.576 152.84,509.72L201.26,540.78C201.385,540.86 201.531,540.903 201.68,540.903C202.108,540.903 202.46,540.551 202.46,540.123C202.46,540.122 202.46,540.121 202.46,540.12L202.46,483.08C202.462,482.808 202.322,482.553 202.09,482.41L153.67,452.83C153.547,452.754 153.405,452.714 153.26,452.714C152.832,452.714 152.48,453.066 152.48,453.494C152.48,453.496 152.48,453.498 152.48,453.5L152.48,509.06" style="fill:none;fill-rule:nonzero;stroke:rgb(129,128,126);stroke-width:2px;"/>
            <path d="M201.65,587.46C201.74,587.516 201.844,587.545 201.95,587.545C202.263,587.545 202.52,587.288 202.52,586.975C202.52,586.974 202.52,586.972 202.52,586.97L202.52,552.98C202.52,552.094 202.052,551.272 201.29,550.82C191.93,545.26 185.5,541.61 176.95,535.97C165.123,528.163 156.253,522.537 150.34,519.09C148.573,518.063 146.697,518.17 144.71,519.41C136.723,524.39 128.317,529.917 119.49,535.99C119.356,536.081 119.275,536.233 119.275,536.396C119.275,536.57 119.369,536.733 119.52,536.82C139.987,548.587 161.35,561.613 183.61,575.9C195.077,583.253 201.09,587.107 201.65,587.46" style="fill:none;fill-rule:nonzero;stroke:rgb(129,128,126);stroke-width:2px;"/>
            <path d="M264.89,518.69C264.788,518.622 264.656,518.618 264.55,518.68L211.7,550.05C211.603,550.106 211.543,550.208 211.54,550.32L211.54,586.84C211.54,586.843 211.54,586.846 211.54,586.849C211.54,587.025 211.684,587.169 211.86,587.169C211.92,587.169 211.979,587.152 212.03,587.12L292.68,537.06C292.772,537.001 292.828,536.899 292.828,536.79C292.828,536.681 292.772,536.579 292.68,536.52L264.89,518.69" style="fill:none;fill-rule:nonzero;stroke:rgb(129,128,126);stroke-width:2px;"/>
            <path d="M197.28,373.46L126.23,418.32C125.805,418.592 125.348,418.807 124.87,418.96C123.723,419.347 122.727,419.903 121.88,420.63C121.698,420.784 121.593,421.01 121.593,421.249C121.593,421.531 121.74,421.793 121.98,421.94L146.96,437.19C147.723,437.656 148.658,437.745 149.49,437.43C150.41,437.083 151.473,436.51 152.68,435.71C167.267,426.023 182.377,416.763 198.01,407.93C198.581,407.61 198.932,406.998 198.92,406.34L198.28,374C198.276,373.646 197.984,373.358 197.63,373.358C197.506,373.358 197.385,373.393 197.28,373.46" style="fill:none;fill-rule:nonzero;stroke:rgb(25,33,35);stroke-width:2px;"/>
            <path d="M288.42,421.77C288.82,421.53 289.065,421.096 289.065,420.63C289.065,420.164 288.82,419.73 288.42,419.49L212.82,374.62C212.614,374.497 212.379,374.433 212.14,374.433C211.422,374.433 210.828,375.013 210.81,375.73L210.05,405.37C210.039,405.861 210.301,406.32 210.73,406.56L263.02,436.06C263.433,436.294 263.941,436.29 264.35,436.05L288.42,421.77" style="fill:none;fill-rule:nonzero;stroke:rgb(25,33,35);stroke-width:2px;"/>
            <path d="M159.74,445.06L205.87,472.4C206.562,472.81 207.429,472.798 208.11,472.37L252.49,444.29C252.545,444.256 252.596,444.215 252.64,444.169C252.933,443.864 252.919,443.369 252.61,443.073C252.565,443.03 252.514,442.992 252.46,442.96C239.2,435.44 226.607,428.463 214.68,422.03C211.827,420.49 208.987,419.093 206.16,417.84C204.887,417.273 203.777,417.273 202.83,417.84C190.67,425.067 176.303,433.977 159.73,444.57C159.649,444.624 159.6,444.715 159.6,444.812C159.6,444.913 159.653,445.008 159.74,445.06" style="fill:none;fill-rule:nonzero;stroke:rgb(29,47,54);stroke-width:2px;"/>
            <path d="M294.02,524.87C294.171,524.962 294.344,525.01 294.52,525.01C295.047,525.01 295.48,524.577 295.48,524.05C295.48,524.05 295.48,524.05 295.48,524.05L295.48,432.46C295.48,432.459 295.48,432.457 295.48,432.456C295.48,431.929 295.047,431.496 294.52,431.496C294.348,431.496 294.178,431.542 294.03,431.63L271.13,445.22C270.838,445.394 270.658,445.71 270.66,446.05L270.66,510.06C270.66,510.394 270.834,510.706 271.12,510.88L294.02,524.87" style="fill:none;fill-rule:nonzero;stroke:rgb(25,33,35);stroke-width:2px;"/>
            <path d="M116.95,432.27C116.838,432.204 116.71,432.169 116.58,432.169C116.18,432.169 115.85,432.499 115.85,432.899C115.85,432.9 115.85,432.9 115.85,432.9L115.85,524.58C115.854,524.978 116.182,525.303 116.58,525.303C116.718,525.303 116.853,525.264 116.97,525.19L141.86,509.47C142.069,509.338 142.198,509.108 142.2,508.86L142.2,447.68C142.2,447.421 142.063,447.181 141.84,447.05L116.95,432.27" style="fill:none;fill-rule:nonzero;stroke:rgb(25,33,35);stroke-width:2px;"/>
            <path d="M214.28,481.08C212.2,482.41 211.96,484.39 212.62,486.83L212.62,486.89L212.65,536.29C212.651,536.679 212.971,536.998 213.36,536.998C213.487,536.998 213.611,536.964 213.72,536.9L259.01,510.03C259.276,509.876 259.44,509.59 259.44,509.28C259.46,505.873 259.313,498.517 259,487.21C258.7,476.44 259.2,466.3 259.49,453.42C259.49,453.418 259.49,453.416 259.49,453.415C259.49,453.212 259.323,453.045 259.12,453.045C259.045,453.045 258.972,453.067 258.91,453.11C244.28,463.01 227.1,472.85 214.28,481.08" style="fill:none;fill-rule:nonzero;stroke:rgb(29,47,54);stroke-width:2px;"/>
            <path d="M153.65,508.69C153.65,508.933 153.775,509.16 153.98,509.29L200.49,539.12C200.604,539.192 200.735,539.23 200.87,539.23C201.259,539.23 201.58,538.91 201.58,538.52C201.58,538.52 201.58,538.52 201.58,538.52L201.58,483.14C201.579,482.889 201.446,482.657 201.23,482.53L154.72,454.93C154.611,454.866 154.487,454.832 154.36,454.832C153.971,454.832 153.651,455.151 153.65,455.54L153.65,508.69" style="fill:none;fill-rule:nonzero;stroke:rgb(29,47,54);stroke-width:2px;"/>
            <path d="M200.83,584.04L201.62,553.36C201.639,552.595 201.241,551.873 200.58,551.47C194.44,547.74 187.22,543.96 180.83,539.72C167.87,531.14 158.84,525.09 149.41,519.78C148.239,519.125 146.797,519.183 145.69,519.93L122.43,535.57C122.207,535.718 122.072,535.969 122.072,536.237C122.072,536.53 122.233,536.8 122.49,536.94C126.397,539.06 133.977,543.59 145.23,550.53C161.69,560.69 179.833,572.067 199.66,584.66C199.782,584.739 199.925,584.78 200.07,584.78C200.48,584.78 200.819,584.449 200.83,584.04" style="fill:none;fill-rule:nonzero;stroke:rgb(25,33,35);stroke-width:2px;"/>
            <path d="M264.79,519.9C264.68,519.831 264.54,519.831 264.43,519.9L212.65,550.63C212.543,550.692 212.478,550.807 212.48,550.93L213.15,584.51C213.15,584.511 213.15,584.511 213.15,584.512C213.15,584.698 213.303,584.852 213.49,584.852C213.554,584.852 213.616,584.834 213.67,584.8L290.59,537.04C290.689,536.978 290.75,536.869 290.75,536.752C290.75,536.639 290.694,536.533 290.6,536.47L264.79,519.9" style="fill:none;fill-rule:nonzero;stroke:rgb(25,33,35);stroke-width:2px;"/>
            <path d="M304.21,415.81C306.51,417.75 306.6,420.18 306.79,423.15C306.977,426.137 307.07,432.6 307.07,442.54C307.057,466.273 307.083,495.64 307.15,530.64C307.157,534.16 306.987,536.64 306.64,538.08C305.74,541.83 302.54,543.39 298.56,545.81C272.38,561.697 254.8,572.457 245.82,578.09C228.7,588.837 218.313,595.313 214.66,597.52C208.95,600.96 205.59,601.81 199.84,598.16C163.093,574.86 133.24,556.55 110.28,543.23C106.213,540.87 104.117,537.633 103.99,533.52C103.71,524.86 103.637,508.827 103.77,485.42C103.983,447.48 104.037,427.593 103.93,425.76C103.76,422.97 104.26,418.78 106.89,416.9C110.883,414.06 117.957,409.613 128.11,403.56C133.977,400.067 144.357,393.523 159.25,383.93C173.33,374.87 186.54,366.677 198.88,359.35C206.14,355.04 211.17,360.2 217.16,363.69C225.087,368.303 232.707,372.71 240.02,376.91C243.953,379.17 251.507,383.697 262.68,390.49C279.187,400.53 290.18,407.153 295.66,410.36C300.2,413.013 303.05,414.83 304.21,415.81ZM305.58,423.89C305.4,420.96 305.31,418.56 303.04,416.64C301.893,415.673 299.077,413.877 294.59,411.25C289.177,408.083 278.313,401.537 262,391.61C250.96,384.897 243.497,380.423 239.61,378.19C232.383,374.037 224.853,369.68 217.02,365.12C211.1,361.67 206.13,356.57 198.96,360.83C186.767,368.07 173.71,376.163 159.79,385.11C145.077,394.59 134.82,401.057 129.02,404.51C118.987,410.49 111.997,414.883 108.05,417.69C105.45,419.54 104.96,423.69 105.12,426.44C105.227,428.253 105.173,447.907 104.96,485.4C104.82,508.527 104.89,524.37 105.17,532.93C105.29,536.997 107.36,540.193 111.38,542.52C134.067,555.687 163.563,573.787 199.87,596.82C205.56,600.43 208.88,599.59 214.52,596.19C218.133,594.01 228.397,587.61 245.31,576.99C254.19,571.423 271.563,560.793 297.43,545.1C301.37,542.71 304.53,541.17 305.42,537.46C305.76,536.04 305.93,533.59 305.93,530.11C305.863,495.523 305.84,466.503 305.86,443.05C305.86,433.23 305.767,426.843 305.58,423.89Z" style="fill:rgb(19,18,14);fill-rule:nonzero;"/>
            <path d="M305.58,423.89C305.767,426.843 305.86,433.23 305.86,443.05C305.84,466.503 305.863,495.523 305.93,530.11C305.93,533.59 305.76,536.04 305.42,537.46C304.53,541.17 301.37,542.71 297.43,545.1C271.563,560.793 254.19,571.423 245.31,576.99C228.397,587.61 218.133,594.01 214.52,596.19C208.88,599.59 205.56,600.43 199.87,596.82C163.563,573.787 134.067,555.687 111.38,542.52C107.36,540.193 105.29,536.997 105.17,532.93C104.89,524.37 104.82,508.527 104.96,485.4C105.173,447.907 105.227,428.253 105.12,426.44C104.96,423.69 105.45,419.54 108.05,417.69C111.997,414.883 118.987,410.49 129.02,404.51C134.82,401.057 145.077,394.59 159.79,385.11C173.71,376.163 186.767,368.07 198.96,360.83C206.13,356.57 211.1,361.67 217.02,365.12C224.853,369.68 232.383,374.037 239.61,378.19C243.497,380.423 250.96,384.897 262,391.61C278.313,401.537 289.177,408.083 294.59,411.25C299.077,413.877 301.893,415.673 303.04,416.64C305.31,418.56 305.4,420.96 305.58,423.89ZM118.82,420.85C118.784,420.87 118.751,420.895 118.722,420.924C118.537,421.105 118.531,421.401 118.708,421.582C118.738,421.613 118.772,421.639 118.81,421.66C128.303,427.073 137.497,432.537 146.39,438.05C147.99,439.04 149.46,438.93 150.93,437.95C166.323,427.717 182.16,417.977 198.44,408.73C199.427,408.17 199.93,407.183 199.95,405.77C200.11,392.537 200.097,381.107 199.91,371.48C199.899,371.098 199.582,370.79 199.2,370.79C199.066,370.79 198.934,370.828 198.82,370.9C193.7,374.193 176.707,385.003 147.84,403.33C136.813,410.323 127.14,416.163 118.82,420.85ZM291.8,420.94C291.939,420.86 292.026,420.711 292.026,420.55C292.026,420.389 291.939,420.24 291.8,420.16L209.71,371.43C209.64,371.389 209.561,371.367 209.48,371.367C209.233,371.367 209.03,371.57 209.03,371.817C209.03,371.818 209.03,371.819 209.03,371.82L209.03,406.6C209.031,406.762 209.119,406.911 209.26,406.99L263.39,437.53C263.529,437.61 263.701,437.61 263.84,437.53L291.8,420.94ZM157.93,444.91L205.82,473.34C206.539,473.763 207.436,473.751 208.14,473.31L254.26,444.18C254.316,444.145 254.368,444.103 254.414,444.056C254.719,443.739 254.706,443.226 254.385,442.917C254.338,442.872 254.286,442.833 254.23,442.8C240.463,434.98 227.39,427.723 215.01,421.03C212.043,419.43 209.093,417.977 206.16,416.67C204.84,416.083 203.687,416.083 202.7,416.67C190.067,424.163 175.14,433.407 157.92,444.4C157.835,444.455 157.783,444.55 157.783,444.652C157.783,444.758 157.839,444.856 157.93,444.91ZM296.91,527.59L296.91,429.53C296.906,429.237 296.663,428.998 296.37,428.998C296.275,428.998 296.182,429.023 296.1,429.07L270.43,444.3C269.823,444.66 269.45,445.315 269.45,446.02C269.56,466.55 269.09,489 269.89,510.21C269.921,511.004 270.345,511.732 271.02,512.15L296.6,527.77C296.617,527.781 296.635,527.789 296.654,527.794C296.759,527.823 296.872,527.756 296.902,527.645C296.907,527.627 296.91,527.608 296.91,527.59ZM114.23,430.12L114.23,528.63C114.23,528.63 114.23,528.63 114.23,528.63C114.23,528.729 114.311,528.81 114.41,528.81C114.446,528.81 114.48,528.8 114.51,528.78C115.53,528.14 116.46,527.13 117.85,526.17C125.517,520.903 133.04,516.08 140.42,511.7C142.113,510.693 142.96,509.613 142.96,508.46C142.94,495.12 143.077,475.077 143.37,448.33C143.382,447.353 142.866,446.44 142.02,445.94L114.82,429.79C114.76,429.754 114.69,429.735 114.62,429.735C114.408,429.735 114.233,429.908 114.23,430.12ZM260.08,451.1C255.593,454.233 250.93,457.31 246.09,460.33C235.53,466.917 225.03,473.493 214.59,480.06C213.46,480.77 212,481.65 211.92,482.99C211.74,486.17 211.65,488.68 211.65,490.52C211.65,520.88 211.637,537.05 211.61,539.03C211.61,539.031 211.61,539.033 211.61,539.034C211.61,539.232 211.772,539.394 211.97,539.394C212.037,539.394 212.103,539.375 212.16,539.34C227.413,529.6 243.297,520.133 259.81,510.94C260.385,510.616 260.73,509.996 260.7,509.34C259.813,490.013 259.853,470.737 260.82,451.51C260.82,451.501 260.821,451.493 260.821,451.484C260.821,451.226 260.609,451.014 260.351,451.014C260.254,451.014 260.159,451.044 260.08,451.1ZM152.48,509.06C152.479,509.327 152.615,509.576 152.84,509.72L201.26,540.78C201.385,540.86 201.531,540.903 201.68,540.903C202.108,540.903 202.46,540.551 202.46,540.123C202.46,540.122 202.46,540.121 202.46,540.12L202.46,483.08C202.462,482.808 202.322,482.553 202.09,482.41L153.67,452.83C153.547,452.754 153.405,452.714 153.26,452.714C152.832,452.714 152.48,453.066 152.48,453.494C152.48,453.496 152.48,453.498 152.48,453.5L152.48,509.06ZM201.65,587.46C201.74,587.516 201.844,587.545 201.95,587.545C202.263,587.545 202.52,587.288 202.52,586.975C202.52,586.974 202.52,586.972 202.52,586.97L202.52,552.98C202.52,552.094 202.052,551.272 201.29,550.82C191.93,545.26 185.5,541.61 176.95,535.97C165.123,528.163 156.253,522.537 150.34,519.09C148.573,518.063 146.697,518.17 144.71,519.41C136.723,524.39 128.317,529.917 119.49,535.99C119.356,536.081 119.275,536.233 119.275,536.396C119.275,536.57 119.369,536.733 119.52,536.82C139.987,548.587 161.35,561.613 183.61,575.9C195.077,583.253 201.09,587.107 201.65,587.46ZM264.89,518.69C264.788,518.622 264.656,518.618 264.55,518.68L211.7,550.05C211.603,550.106 211.543,550.208 211.54,550.32L211.54,586.84C211.54,586.843 211.54,586.846 211.54,586.849C211.54,587.025 211.684,587.169 211.86,587.169C211.92,587.169 211.979,587.152 212.03,587.12L292.68,537.06C292.772,537.001 292.828,536.899 292.828,536.79C292.828,536.681 292.772,536.579 292.68,536.52L264.89,518.69Z" style="fill:rgb(239,238,238);fill-rule:nonzero;"/>
            <path d="M118.82,420.85C127.14,416.163 136.813,410.323 147.84,403.33C176.707,385.003 193.7,374.193 198.82,370.9C198.934,370.828 199.066,370.79 199.2,370.79C199.582,370.79 199.899,371.098 199.91,371.48C200.097,381.107 200.11,392.537 199.95,405.77C199.93,407.183 199.427,408.17 198.44,408.73C182.16,417.977 166.323,427.717 150.93,437.95C149.46,438.93 147.99,439.04 146.39,438.05C137.497,432.537 128.303,427.073 118.81,421.66C118.772,421.639 118.738,421.613 118.708,421.582C118.531,421.401 118.537,421.105 118.722,420.924C118.751,420.895 118.784,420.87 118.82,420.85ZM197.28,373.46L126.23,418.32C125.805,418.592 125.348,418.807 124.87,418.96C123.723,419.347 122.727,419.903 121.88,420.63C121.698,420.784 121.593,421.01 121.593,421.249C121.593,421.531 121.74,421.793 121.98,421.94L146.96,437.19C147.723,437.656 148.658,437.745 149.49,437.43C150.41,437.083 151.473,436.51 152.68,435.71C167.267,426.023 182.377,416.763 198.01,407.93C198.581,407.61 198.932,406.998 198.92,406.34L198.28,374C198.276,373.646 197.984,373.358 197.63,373.358C197.506,373.358 197.385,373.393 197.28,373.46Z" style="fill:rgb(19,18,14);fill-rule:nonzero;"/>
            <path d="M291.8,420.94L263.84,437.53C263.701,437.61 263.529,437.61 263.39,437.53L209.26,406.99C209.119,406.911 209.031,406.762 209.03,406.6L209.03,371.82C209.03,371.819 209.03,371.818 209.03,371.817C209.03,371.57 209.233,371.367 209.48,371.367C209.561,371.367 209.64,371.389 209.71,371.43L291.8,420.16C291.939,420.24 292.026,420.389 292.026,420.55C292.026,420.711 291.939,420.86 291.8,420.94ZM288.42,421.77C288.82,421.53 289.065,421.096 289.065,420.63C289.065,420.164 288.82,419.73 288.42,419.49L212.82,374.62C212.614,374.497 212.379,374.433 212.14,374.433C211.422,374.433 210.828,375.013 210.81,375.73L210.05,405.37C210.039,405.861 210.301,406.32 210.73,406.56L263.02,436.06C263.433,436.294 263.941,436.29 264.35,436.05L288.42,421.77Z" style="fill:rgb(19,18,14);fill-rule:nonzero;"/>
            <path d="M197.28,373.46C197.385,373.393 197.506,373.358 197.63,373.358C197.984,373.358 198.276,373.646 198.28,374L198.92,406.34C198.932,406.998 198.581,407.61 198.01,407.93C182.377,416.763 167.267,426.023 152.68,435.71C151.473,436.51 150.41,437.083 149.49,437.43C148.658,437.745 147.723,437.656 146.96,437.19L121.98,421.94C121.74,421.793 121.593,421.531 121.593,421.249C121.593,421.01 121.698,420.784 121.88,420.63C122.727,419.903 123.723,419.347 124.87,418.96C125.348,418.807 125.805,418.592 126.23,418.32L197.28,373.46Z" style="fill:rgb(30,48,55);fill-rule:nonzero;"/>
            <path d="M288.42,421.77L264.35,436.05C263.941,436.29 263.433,436.294 263.02,436.06L210.73,406.56C210.301,406.32 210.039,405.861 210.05,405.37L210.81,375.73C210.828,375.013 211.422,374.433 212.14,374.433C212.379,374.433 212.614,374.497 212.82,374.62L288.42,419.49C288.82,419.73 289.065,420.164 289.065,420.63C289.065,421.096 288.82,421.53 288.42,421.77Z" style="fill:rgb(30,48,55);fill-rule:nonzero;"/>
            <path d="M157.93,444.91C157.839,444.856 157.783,444.758 157.783,444.652C157.783,444.55 157.835,444.455 157.92,444.4C175.14,433.407 190.067,424.163 202.7,416.67C203.687,416.083 204.84,416.083 206.16,416.67C209.093,417.977 212.043,419.43 215.01,421.03C227.39,427.723 240.463,434.98 254.23,442.8C254.286,442.833 254.338,442.872 254.385,442.917C254.706,443.226 254.719,443.739 254.414,444.056C254.368,444.103 254.316,444.145 254.26,444.18L208.14,473.31C207.436,473.751 206.539,473.763 205.82,473.34L157.93,444.91ZM159.74,445.06L205.87,472.4C206.562,472.81 207.429,472.798 208.11,472.37L252.49,444.29C252.545,444.256 252.596,444.215 252.64,444.169C252.933,443.864 252.919,443.369 252.61,443.073C252.565,443.03 252.514,442.992 252.46,442.96C239.2,435.44 226.607,428.463 214.68,422.03C211.827,420.49 208.987,419.093 206.16,417.84C204.887,417.273 203.777,417.273 202.83,417.84C190.67,425.067 176.303,433.977 159.73,444.57C159.649,444.624 159.6,444.715 159.6,444.812C159.6,444.913 159.653,445.008 159.74,445.06Z" style="fill:rgb(19,18,14);fill-rule:nonzero;"/>
            <path d="M159.74,445.06C159.653,445.008 159.6,444.913 159.6,444.812C159.6,444.715 159.649,444.624 159.73,444.57C176.303,433.977 190.67,425.067 202.83,417.84C203.777,417.273 204.887,417.273 206.16,417.84C208.987,419.093 211.827,420.49 214.68,422.03C226.607,428.463 239.2,435.44 252.46,442.96C252.514,442.992 252.565,443.03 252.61,443.073C252.919,443.369 252.933,443.864 252.64,444.169C252.596,444.215 252.545,444.256 252.49,444.29L208.11,472.37C207.429,472.798 206.562,472.81 205.87,472.4L159.74,445.06Z" style="fill:rgb(39,76,93);fill-rule:nonzero;"/>
            <path d="M296.91,527.59C296.91,527.608 296.907,527.627 296.902,527.645C296.872,527.756 296.759,527.823 296.654,527.794C296.635,527.789 296.617,527.781 296.6,527.77L271.02,512.15C270.345,511.732 269.921,511.004 269.89,510.21C269.09,489 269.56,466.55 269.45,446.02C269.45,445.315 269.823,444.66 270.43,444.3L296.1,429.07C296.182,429.023 296.275,428.998 296.37,428.998C296.663,428.998 296.906,429.237 296.91,429.53L296.91,527.59ZM294.02,524.87C294.171,524.962 294.344,525.01 294.52,525.01C295.047,525.01 295.48,524.577 295.48,524.05C295.48,524.05 295.48,524.05 295.48,524.05L295.48,432.46C295.48,432.459 295.48,432.457 295.48,432.456C295.48,431.929 295.047,431.496 294.52,431.496C294.348,431.496 294.178,431.542 294.03,431.63L271.13,445.22C270.838,445.394 270.658,445.71 270.66,446.05L270.66,510.06C270.66,510.394 270.834,510.706 271.12,510.88L294.02,524.87Z" style="fill:rgb(19,18,14);fill-rule:nonzero;"/>
            <path d="M114.23,430.12C114.233,429.908 114.408,429.735 114.62,429.735C114.69,429.735 114.76,429.754 114.82,429.79L142.02,445.94C142.866,446.44 143.382,447.353 143.37,448.33C143.077,475.077 142.94,495.12 142.96,508.46C142.96,509.613 142.113,510.693 140.42,511.7C133.04,516.08 125.517,520.903 117.85,526.17C116.46,527.13 115.53,528.14 114.51,528.78C114.48,528.8 114.446,528.81 114.41,528.81C114.311,528.81 114.23,528.729 114.23,528.63C114.23,528.63 114.23,528.63 114.23,528.63L114.23,430.12ZM116.95,432.27C116.838,432.204 116.71,432.169 116.58,432.169C116.18,432.169 115.85,432.499 115.85,432.899C115.85,432.9 115.85,432.9 115.85,432.9L115.85,524.58C115.854,524.978 116.182,525.303 116.58,525.303C116.718,525.303 116.853,525.264 116.97,525.19L141.86,509.47C142.069,509.338 142.198,509.108 142.2,508.86L142.2,447.68C142.2,447.421 142.063,447.181 141.84,447.05L116.95,432.27Z" style="fill:rgb(19,18,14);fill-rule:nonzero;"/>
            <path d="M294.02,524.87L271.12,510.88C270.834,510.706 270.66,510.394 270.66,510.06L270.66,446.05C270.658,445.71 270.838,445.394 271.13,445.22L294.03,431.63C294.178,431.542 294.348,431.496 294.52,431.496C295.047,431.496 295.48,431.929 295.48,432.456C295.48,432.457 295.48,432.459 295.48,432.46L295.48,524.05C295.48,524.05 295.48,524.05 295.48,524.05C295.48,524.577 295.047,525.01 294.52,525.01C294.344,525.01 294.171,524.962 294.02,524.87Z" style="fill:rgb(30,48,55);fill-rule:nonzero;"/>
            <path d="M116.95,432.27L141.84,447.05C142.063,447.181 142.2,447.421 142.2,447.68L142.2,508.86C142.198,509.108 142.069,509.338 141.86,509.47L116.97,525.19C116.853,525.264 116.718,525.303 116.58,525.303C116.182,525.303 115.854,524.978 115.85,524.58L115.85,432.9C115.85,432.9 115.85,432.9 115.85,432.899C115.85,432.499 116.18,432.169 116.58,432.169C116.71,432.169 116.838,432.204 116.95,432.27Z" style="fill:rgb(30,48,55);fill-rule:nonzero;"/>
            <path d="M260.08,451.1C260.159,451.044 260.254,451.014 260.351,451.014C260.609,451.014 260.821,451.226 260.821,451.484C260.821,451.493 260.82,451.501 260.82,451.51C259.853,470.737 259.813,490.013 260.7,509.34C260.73,509.996 260.385,510.616 259.81,510.94C243.297,520.133 227.413,529.6 212.16,539.34C212.103,539.375 212.037,539.394 211.97,539.394C211.772,539.394 211.61,539.232 211.61,539.034C211.61,539.033 211.61,539.031 211.61,539.03C211.637,537.05 211.65,520.88 211.65,490.52C211.65,488.68 211.74,486.17 211.92,482.99C212,481.65 213.46,480.77 214.59,480.06C225.03,473.493 235.53,466.917 246.09,460.33C250.93,457.31 255.593,454.233 260.08,451.1ZM214.28,481.08C212.2,482.41 211.96,484.39 212.62,486.83L212.62,486.89L212.65,536.29C212.651,536.679 212.971,536.998 213.36,536.998C213.487,536.998 213.611,536.964 213.72,536.9L259.01,510.03C259.276,509.876 259.44,509.59 259.44,509.28C259.46,505.873 259.313,498.517 259,487.21C258.7,476.44 259.2,466.3 259.49,453.42C259.49,453.418 259.49,453.416 259.49,453.415C259.49,453.212 259.323,453.045 259.12,453.045C259.045,453.045 258.972,453.067 258.91,453.11C244.28,463.01 227.1,472.85 214.28,481.08Z" style="fill:rgb(19,18,14);fill-rule:nonzero;"/>
            <path d="M152.48,509.06L152.48,453.5C152.48,453.498 152.48,453.496 152.48,453.494C152.48,453.066 152.832,452.714 153.26,452.714C153.405,452.714 153.547,452.754 153.67,452.83L202.09,482.41C202.322,482.553 202.462,482.808 202.46,483.08L202.46,540.12C202.46,540.121 202.46,540.122 202.46,540.123C202.46,540.551 202.108,540.903 201.68,540.903C201.531,540.903 201.385,540.86 201.26,540.78L152.84,509.72C152.615,509.576 152.479,509.327 152.48,509.06ZM153.65,508.69C153.65,508.933 153.775,509.16 153.98,509.29L200.49,539.12C200.604,539.192 200.735,539.23 200.87,539.23C201.259,539.23 201.58,538.91 201.58,538.52C201.58,538.52 201.58,538.52 201.58,538.52L201.58,483.14C201.579,482.889 201.446,482.657 201.23,482.53L154.72,454.93C154.611,454.866 154.487,454.832 154.36,454.832C153.971,454.832 153.651,455.151 153.65,455.54L153.65,508.69Z" style="fill:rgb(19,18,14);fill-rule:nonzero;"/>
            <path d="M212.62,486.83C211.96,484.39 212.2,482.41 214.28,481.08C227.1,472.85 244.28,463.01 258.91,453.11C258.972,453.067 259.045,453.045 259.12,453.045C259.323,453.045 259.49,453.212 259.49,453.415C259.49,453.416 259.49,453.418 259.49,453.42C259.2,466.3 258.7,476.44 259,487.21C259.313,498.517 259.46,505.873 259.44,509.28C259.44,509.59 259.276,509.876 259.01,510.03L213.72,536.9C213.611,536.964 213.487,536.998 213.36,536.998C212.971,536.998 212.651,536.679 212.65,536.29L212.62,486.89L212.62,486.83Z" style="fill:rgb(39,76,93);fill-rule:nonzero;"/>
            <path d="M153.65,508.69L153.65,455.54C153.651,455.151 153.971,454.832 154.36,454.832C154.487,454.832 154.611,454.866 154.72,454.93L201.23,482.53C201.446,482.657 201.579,482.889 201.58,483.14L201.58,538.52C201.58,538.52 201.58,538.52 201.58,538.52C201.58,538.91 201.259,539.23 200.87,539.23C200.735,539.23 200.604,539.192 200.49,539.12L153.98,509.29C153.775,509.16 153.65,508.933 153.65,508.69Z" style="fill:rgb(39,76,93);fill-rule:nonzero;"/>
            <path d="M201.65,587.46C201.09,587.107 195.077,583.253 183.61,575.9C161.35,561.613 139.987,548.587 119.52,536.82C119.369,536.733 119.275,536.57 119.275,536.396C119.275,536.233 119.356,536.081 119.49,535.99C128.317,529.917 136.723,524.39 144.71,519.41C146.697,518.17 148.573,518.063 150.34,519.09C156.253,522.537 165.123,528.163 176.95,535.97C185.5,541.61 191.93,545.26 201.29,550.82C202.052,551.272 202.52,552.094 202.52,552.98L202.52,586.97C202.52,586.972 202.52,586.974 202.52,586.975C202.52,587.288 202.263,587.545 201.95,587.545C201.844,587.545 201.74,587.516 201.65,587.46ZM200.83,584.04L201.62,553.36C201.639,552.595 201.241,551.873 200.58,551.47C194.44,547.74 187.22,543.96 180.83,539.72C167.87,531.14 158.84,525.09 149.41,519.78C148.239,519.125 146.797,519.183 145.69,519.93L122.43,535.57C122.207,535.718 122.072,535.969 122.072,536.237C122.072,536.53 122.233,536.8 122.49,536.94C126.397,539.06 133.977,543.59 145.23,550.53C161.69,560.69 179.833,572.067 199.66,584.66C199.782,584.739 199.925,584.78 200.07,584.78C200.48,584.78 200.819,584.449 200.83,584.04Z" style="fill:rgb(19,18,14);fill-rule:nonzero;"/>
            <path d="M200.83,584.04C200.819,584.449 200.48,584.78 200.07,584.78C199.925,584.78 199.782,584.739 199.66,584.66C179.833,572.067 161.69,560.69 145.23,550.53C133.977,543.59 126.397,539.06 122.49,536.94C122.233,536.8 122.072,536.53 122.072,536.237C122.072,535.969 122.207,535.718 122.43,535.57L145.69,519.93C146.797,519.183 148.239,519.125 149.41,519.78C158.84,525.09 167.87,531.14 180.83,539.72C187.22,543.96 194.44,547.74 200.58,551.47C201.241,551.873 201.639,552.595 201.62,553.36L200.83,584.04Z" style="fill:rgb(30,48,55);fill-rule:nonzero;"/>
            <path d="M264.89,518.69L292.68,536.52C292.772,536.579 292.828,536.681 292.828,536.79C292.828,536.899 292.772,537.001 292.68,537.06L212.03,587.12C211.979,587.152 211.92,587.169 211.86,587.169C211.684,587.169 211.54,587.025 211.54,586.849C211.54,586.846 211.54,586.843 211.54,586.84L211.54,550.32C211.543,550.208 211.603,550.106 211.7,550.05L264.55,518.68C264.656,518.618 264.788,518.622 264.89,518.69ZM264.79,519.9C264.68,519.831 264.54,519.831 264.43,519.9L212.65,550.63C212.543,550.692 212.478,550.807 212.48,550.93L213.15,584.51C213.15,584.511 213.15,584.511 213.15,584.512C213.15,584.698 213.303,584.852 213.49,584.852C213.554,584.852 213.616,584.834 213.67,584.8L290.59,537.04C290.689,536.978 290.75,536.869 290.75,536.752C290.75,536.639 290.694,536.533 290.6,536.47L264.79,519.9Z" style="fill:rgb(19,18,14);fill-rule:nonzero;"/>
            <path d="M264.79,519.9L290.6,536.47C290.694,536.533 290.75,536.639 290.75,536.752C290.75,536.869 290.689,536.978 290.59,537.04L213.67,584.8C213.616,584.834 213.554,584.852 213.49,584.852C213.303,584.852 213.15,584.698 213.15,584.512C213.15,584.511 213.15,584.511 213.15,584.51L212.48,550.93C212.478,550.807 212.543,550.692 212.65,550.63L264.43,519.9C264.54,519.831 264.68,519.831 264.79,519.9Z" style="fill:rgb(30,48,55);fill-rule:nonzero;"/>
        </g>
    </g>
</svg>
