<?xml version="1.0" encoding="UTF-8" standalone="no"?>
<!DOCTYPE svg PUBLIC "-//W3C//DTD SVG 1.1//EN" "http://www.w3.org/Graphics/SVG/1.1/DTD/svg11.dtd">
<svg width="100%" height="100%" viewBox="0 0 912 296" version="1.1" xmlns="http://www.w3.org/2000/svg" xmlns:xlink="http://www.w3.org/1999/xlink" xml:space="preserve" xmlns:serif="http://www.serif.com/" style="fill-rule:evenodd;clip-rule:evenodd;">
    <g transform="matrix(1,0,0,1,-67.9997,-364.233)">
        <g transform="matrix(0.959111,0,0,0.951735,38.2536,58.5314)">
            <rect x="31.014" y="321.204" width="949.906" height="310.522" style="fill:rgb(23,26,25);"/>
        </g>
        <g>
            <path d="M502.109,452.727C502.11,452.676 502.11,452.624 502.11,452.573C502.11,436.47 488.907,423.198 472.804,423.113L468.024,423.088C467.973,423.088 467.921,423.088 467.87,423.088C451.767,423.088 438.494,436.291 438.41,452.394L438.151,501.933C438.15,501.984 438.15,502.036 438.15,502.087C438.15,518.19 451.353,531.462 467.456,531.547L472.236,531.572C472.287,531.572 472.339,531.572 472.39,531.572C488.493,531.572 501.766,518.369 501.85,502.266L502.109,452.727" style="fill:none;fill-rule:nonzero;stroke:rgb(116,28,26);stroke-width:2px;"/>
            <path d="M638.444,452.306C638.444,452.288 638.444,452.271 638.444,452.254C638.444,436.25 625.29,423.072 609.285,423.045L604.205,423.036C588.181,423.008 574.972,436.17 574.944,452.195L574.856,502.395C574.856,502.412 574.856,502.429 574.856,502.446C574.856,518.45 588.01,531.628 604.015,531.656L609.095,531.664C625.119,531.692 638.328,518.53 638.356,502.505L638.444,452.306" style="fill:none;fill-rule:nonzero;stroke:rgb(116,28,26);stroke-width:2px;"/>
            <path d="M652.34,477.37C652.353,489.35 652.407,497.307 652.5,501.24C652.88,517.11 662.62,529.29 678.71,531.38C702.34,534.45 714.83,519.97 715.64,497.49C715.64,497.483 715.64,497.477 715.64,497.47C715.64,497.163 715.388,496.91 715.08,496.91C715.08,496.91 715.08,496.91 715.08,496.91L696.8,496.91C696.453,496.91 696.165,497.193 696.16,497.54C696.01,505.9 694.1,514.78 683.69,514.41C673.25,514.03 671.77,504.2 671.97,496C671.977,495.853 671.973,489.637 671.96,477.35C671.947,465.07 671.937,458.857 671.93,458.71C671.72,450.51 673.18,440.67 683.61,440.27C694.02,439.88 695.95,448.76 696.12,457.12C696.125,457.467 696.413,457.75 696.76,457.75L715.04,457.71C715.04,457.71 715.04,457.71 715.04,457.71C715.348,457.71 715.6,457.457 715.6,457.15C715.6,457.143 715.6,457.137 715.6,457.13C714.74,434.65 702.22,420.2 678.6,423.31C662.51,425.44 652.8,437.64 652.45,453.51C652.363,457.443 652.327,465.397 652.34,477.37" style="fill:none;fill-rule:nonzero;stroke:rgb(116,28,26);stroke-width:2px;"/>
            <path d="M865.367,452.502C865.367,452.467 865.367,452.433 865.367,452.399C865.367,436.32 852.168,423.075 836.089,423.019L830.99,423.001C830.955,423.001 830.921,423.001 830.887,423.001C814.808,423.001 801.563,436.2 801.507,452.279L801.333,502.058C801.333,502.093 801.333,502.127 801.333,502.161C801.333,518.24 814.532,531.485 830.611,531.541L835.711,531.559C835.745,531.559 835.779,531.559 835.813,531.559C851.892,531.559 865.137,518.36 865.193,502.281L865.367,452.502" style="fill:none;fill-rule:nonzero;stroke:rgb(116,28,26);stroke-width:2px;"/>
            <path d="M390.65,486.76C398.39,486.76 402.4,486.763 402.68,486.77C402.93,486.781 403.13,486.985 403.13,487.23L403.14,528.9C403.14,529.372 403.528,529.76 404,529.76L421.84,529.76C422.114,529.76 422.34,529.53 422.34,529.25L422.34,425.5C422.34,425.248 422.132,425.04 421.88,425.04L403.69,425.04C403.377,425.04 403.12,425.297 403.12,425.61L403.12,467.63C403.12,467.959 402.849,468.23 402.52,468.23C397.453,468.237 393.493,468.243 390.64,468.25C387.78,468.25 383.817,468.247 378.75,468.24C378.421,468.24 378.15,467.969 378.15,467.64L378.12,425.62C378.12,425.307 377.863,425.05 377.55,425.05L359.36,425.07C359.108,425.07 358.9,425.278 358.9,425.53L358.99,529.28C358.99,529.56 359.216,529.79 359.49,529.79L377.33,529.77C377.802,529.77 378.19,529.382 378.19,528.91L378.16,487.24C378.16,486.995 378.36,486.791 378.61,486.78C378.89,486.773 382.903,486.767 390.65,486.76" style="fill:none;fill-rule:nonzero;stroke:rgb(116,28,26);stroke-width:2px;"/>
            <path d="M536.35,425.6C536.35,425.249 536.061,424.96 535.71,424.96L517.67,424.96C517.319,424.96 517.03,425.249 517.03,425.6L517.03,529.04C517.03,529.391 517.319,529.68 517.67,529.68L565.94,529.68C566.291,529.68 566.58,529.391 566.58,529.04L566.58,513.37C566.58,513.019 566.291,512.73 565.94,512.73L536.99,512.73C536.639,512.73 536.35,512.441 536.35,512.09L536.35,425.6" style="fill:none;fill-rule:nonzero;stroke:rgb(116,28,26);stroke-width:2px;"/>
            <path d="M790.76,529.03L775.48,487.25C775.347,486.897 775.492,486.494 775.82,486.3C788.44,478.94 789.45,467.14 789.21,453.76C789,442.15 783.31,431.33 772.11,427.47C767.837,425.997 764.563,425.223 762.29,425.15C753.823,424.883 742.563,424.85 728.51,425.05C728.334,425.05 728.19,425.199 728.19,425.38L728.19,528.74C728.19,529.256 728.614,529.68 729.13,529.68L747.26,529.68C747.573,529.68 747.83,529.427 747.83,529.12L747.83,491.56C747.83,491.214 748.11,490.93 748.45,490.93L756.66,490.93C757.197,490.929 757.678,491.277 757.85,491.79L770.07,528.44C770.319,529.189 771.026,529.699 771.82,529.7L790.29,529.7C790.564,529.7 790.79,529.474 790.79,529.2C790.79,529.142 790.78,529.085 790.76,529.03" style="fill:none;fill-rule:nonzero;stroke:rgb(116,28,26);stroke-width:2px;"/>
            <path d="M896.84,529.66C897.043,529.66 897.21,529.493 897.21,529.29L897.21,463.82C897.218,463.623 897.382,463.465 897.58,463.465C897.728,463.465 897.862,463.554 897.92,463.69L923.79,529.45C923.846,529.588 923.981,529.679 924.13,529.68L941.81,529.68C942.013,529.68 942.18,529.513 942.18,529.31L942.18,425.36C942.18,425.157 942.013,424.99 941.81,424.99L926.3,424.99C926.097,424.99 925.93,425.157 925.93,425.36L925.93,492.74C925.922,492.937 925.758,493.095 925.56,493.095C925.412,493.095 925.278,493.006 925.22,492.87L898.6,425.19C898.544,425.052 898.409,424.961 898.26,424.96L880.47,424.96C880.267,424.96 880.1,425.127 880.1,425.33L880.1,529.29C880.1,529.493 880.267,529.66 880.47,529.66L896.84,529.66" style="fill:none;fill-rule:nonzero;stroke:rgb(116,28,26);stroke-width:2px;"/>
            <path d="M401.34,587.92C405.16,587.907 407.207,587.9 407.48,587.9C407.76,587.9 407.99,588.13 407.99,588.41C407.99,588.41 408.02,601.73 408.02,601.73C408.02,602.251 408.449,602.68 408.97,602.68C408.973,602.68 408.977,602.68 408.98,602.68C408.98,602.68 412.43,602.67 412.43,602.67C412.951,602.67 413.38,602.241 413.38,601.72C413.38,601.717 413.38,601.713 413.38,601.71L413.3,570.14C413.3,569.734 412.97,569.4 412.57,569.4L408.73,569.41C408.297,569.41 407.94,569.767 407.94,570.2L407.98,582.4C407.98,582.4 407.98,582.4 407.98,582.4C407.98,582.724 407.714,582.99 407.39,582.99C407.387,582.99 407.383,582.99 407.38,582.99C405.453,582.983 403.433,582.983 401.32,582.99C399.213,582.997 397.197,583.007 395.27,583.02C395.267,583.02 395.263,583.02 395.26,583.02C394.936,583.02 394.67,582.754 394.67,582.43C394.67,582.43 394.67,582.43 394.67,582.43C394.67,582.43 394.64,570.23 394.64,570.23C394.64,569.797 394.283,569.44 393.85,569.44C393.847,569.44 393.843,569.44 393.84,569.44L390.01,569.46C390.009,569.46 390.008,569.46 390.007,569.46C389.608,569.461 389.28,569.795 389.28,570.2L389.36,601.78C389.36,601.78 389.36,601.78 389.36,601.78C389.36,602.301 389.789,602.73 390.31,602.73C390.313,602.73 390.317,602.73 390.32,602.73C390.32,602.73 393.77,602.72 393.77,602.72C394.291,602.72 394.72,602.291 394.72,601.77C394.72,601.767 394.72,601.763 394.72,601.76L394.69,588.45C394.69,588.17 394.92,587.94 395.2,587.94C395.467,587.933 397.513,587.927 401.34,587.92" style="fill:none;fill-rule:nonzero;stroke:rgb(116,28,26);stroke-width:2px;"/>
            <path d="M428.7,588.47C428.7,588.232 428.897,588.035 429.14,588.03L440.6,587.88C441.09,587.875 441.494,587.48 441.51,586.99L441.57,584.16C441.57,584.15 441.57,584.14 441.57,584.13C441.57,583.576 441.115,583.12 440.56,583.12C440.56,583.12 440.56,583.12 440.56,583.12L429.41,583.08C429.407,583.08 429.403,583.08 429.4,583.08C429.054,583.08 428.77,582.796 428.77,582.45C428.77,582.45 428.77,582.45 428.77,582.45L428.72,574.64C428.72,574.637 428.72,574.633 428.72,574.63C428.72,574.323 428.973,574.07 429.28,574.07C429.28,574.07 441.61,574.07 441.61,574.07C442.067,574.07 442.445,573.702 442.45,573.25L442.48,570.36C442.48,570.357 442.48,570.353 442.48,570.35C442.48,569.917 442.123,569.56 441.69,569.56C441.69,569.56 441.69,569.56 441.69,569.56L423.93,569.61C423.683,569.61 423.48,569.813 423.48,570.06L423.45,601.79C423.45,601.79 423.45,601.791 423.45,601.791C423.451,602.197 423.781,602.531 424.181,602.53C424.184,602.53 424.187,602.53 424.19,602.53L441.82,602.61C441.827,602.61 441.834,602.61 441.842,602.61C442.527,602.604 443.087,602.03 443.081,601.339C443.081,601.329 443.08,601.32 443.08,601.31L443.04,599.38C443.029,598.634 442.416,598.025 441.67,598.02L429.22,597.98C428.935,597.98 428.7,597.745 428.7,597.46L428.7,588.47" style="fill:none;fill-rule:nonzero;stroke:rgb(116,28,26);stroke-width:2px;"/>
            <path d="M464.05,570.19L464.11,601.85C464.11,602.201 464.399,602.49 464.75,602.49L474.96,602.47C483.092,602.453 489.771,595.86 489.76,587.86L489.76,584.1C489.76,584.098 489.76,584.096 489.76,584.094C489.746,576.09 483.04,569.516 474.905,569.53C474.903,569.53 474.902,569.53 474.9,569.53L464.69,569.55C464.339,569.55 464.05,569.839 464.05,570.19" style="fill:none;fill-rule:nonzero;stroke:rgb(116,28,26);stroke-width:2px;"/>
            <path d="M502.75,588.47C502.75,588.232 502.947,588.035 503.19,588.03L514.63,587.89C515.12,587.885 515.524,587.49 515.54,587L515.6,584.17C515.6,584.16 515.6,584.15 515.6,584.14C515.6,583.589 515.15,583.135 514.6,583.13L503.46,583.09C503.457,583.09 503.453,583.09 503.45,583.09C503.104,583.09 502.82,582.806 502.82,582.46C502.82,582.46 502.82,582.46 502.82,582.46L502.78,574.66C502.78,574.657 502.78,574.653 502.78,574.65C502.78,574.343 503.033,574.09 503.34,574.09C503.34,574.09 515.65,574.1 515.65,574.1C516.107,574.1 516.485,573.732 516.49,573.28L516.52,570.39C516.52,569.957 516.163,569.6 515.73,569.6L497.99,569.63C497.743,569.63 497.54,569.833 497.54,570.08L497.5,601.76C497.5,602.166 497.83,602.5 498.23,602.5L515.83,602.59C515.837,602.59 515.844,602.59 515.851,602.59C516.537,602.584 517.096,602.01 517.09,601.319C517.09,601.313 517.09,601.306 517.09,601.3L517.06,599.37C517.049,598.624 516.436,598.015 515.69,598.01L503.26,597.96C502.975,597.96 502.74,597.725 502.74,597.44L502.75,588.47" style="fill:none;fill-rule:nonzero;stroke:rgb(116,28,26);stroke-width:2px;"/>
            <path d="M531.83,598.01C531.446,598.01 531.13,597.694 531.13,597.31L531.13,570.33C531.13,569.946 530.814,569.63 530.43,569.63L526.8,569.63C526.416,569.63 526.1,569.946 526.1,570.33L526.1,601.88C526.1,602.264 526.416,602.58 526.8,602.58L543.82,602.58C544.204,602.58 544.52,602.264 544.52,601.88L544.52,598.71C544.52,598.326 544.204,598.01 543.82,598.01L531.83,598.01" style="fill:none;fill-rule:nonzero;stroke:rgb(116,28,26);stroke-width:2px;"/>
            <path d="M552.02,570.43L552.02,601.69C552.02,602.189 552.435,602.6 552.94,602.6L556.29,602.6C556.806,602.6 557.23,602.176 557.23,601.66L557.23,591.13C557.23,591.129 557.23,591.128 557.23,591.127C557.23,590.782 557.514,590.497 557.86,590.497C557.88,590.497 557.9,590.498 557.92,590.5C567.04,591.44 576.45,588.68 574.44,577.24C573.72,573.15 569.92,570.05 565.97,569.8C562.403,569.567 557.99,569.533 552.73,569.7C552.337,569.711 552.02,570.037 552.02,570.43" style="fill:none;fill-rule:nonzero;stroke:rgb(116,28,26);stroke-width:2px;"/>
            <path d="M593.6,587.89C597.373,587.89 599.393,587.893 599.66,587.9C599.936,587.905 600.16,588.129 600.16,588.4L600.16,601.52C600.16,602.036 600.584,602.46 601.1,602.46L604.5,602.46C605.016,602.46 605.44,602.036 605.44,601.52L605.44,570.4C605.44,570 605.115,569.67 604.72,569.67L600.94,569.67C600.512,569.67 600.16,570.022 600.16,570.45L600.16,582.47C600.16,582.794 599.894,583.06 599.57,583.06C597.677,583.047 595.687,583.04 593.6,583.04C591.52,583.04 589.533,583.047 587.64,583.06C587.316,583.06 587.05,582.794 587.05,582.47L587.04,570.45C587.04,570.022 586.688,569.67 586.26,569.67L582.48,569.67C582.085,569.67 581.76,570 581.76,570.4L581.77,601.52C581.77,602.036 582.194,602.46 582.71,602.46L586.11,602.46C586.626,602.46 587.05,602.036 587.05,601.52L587.05,588.4C587.05,588.129 587.274,587.905 587.55,587.9C587.817,587.893 589.833,587.89 593.6,587.89" style="fill:none;fill-rule:nonzero;stroke:rgb(116,28,26);stroke-width:2px;"/>
            <path d="M644.4,570.42L644.44,601.61C644.445,602.105 644.859,602.51 645.36,602.51L648.7,602.51C649.216,602.51 649.64,602.086 649.64,601.57L649.63,591.07C649.63,591.069 649.63,591.068 649.63,591.067C649.63,590.722 649.914,590.437 650.26,590.437C650.28,590.437 650.3,590.438 650.32,590.44C659.41,591.36 668.8,588.6 666.78,577.19C666.06,573.11 662.26,570.02 658.32,569.78C654.76,569.547 650.357,569.517 645.11,569.69C644.717,569.701 644.4,570.027 644.4,570.42" style="fill:none;fill-rule:nonzero;stroke:rgb(116,28,26);stroke-width:2px;"/>
            <path d="M674.05,570.06L674.05,601.92C674.05,602.227 674.303,602.48 674.61,602.48L685.07,602.48C693.079,602.48 699.67,595.889 699.67,587.88L699.67,584.1C699.67,576.091 693.079,569.5 685.07,569.5L674.61,569.5C674.303,569.5 674.05,569.753 674.05,570.06" style="fill:none;fill-rule:nonzero;stroke:rgb(116,28,26);stroke-width:2px;"/>
            <path d="M713.23,589.09C713.23,588.684 713.564,588.35 713.97,588.35L724.13,588.35C724.536,588.35 724.87,588.016 724.87,587.61L724.87,584.48C724.87,584.074 724.536,583.74 724.13,583.74L713.89,583.74C713.484,583.74 713.15,583.406 713.15,583L713.15,574.92C713.15,574.514 713.484,574.18 713.89,574.18L726.25,574.18C726.656,574.18 726.99,573.846 726.99,573.44L726.99,570.42C726.99,570.014 726.656,569.68 726.25,569.68L708.8,569.68C708.394,569.68 708.06,570.014 708.06,570.42L708.06,601.77C708.06,602.176 708.394,602.51 708.8,602.51L712.49,602.51C712.896,602.51 713.23,602.176 713.23,601.77L713.23,589.09" style="fill:none;fill-rule:nonzero;stroke:rgb(116,28,26);stroke-width:2px;"/>
            <path d="M757.65,602.59C758.75,602.583 759.38,602.56 759.54,602.52C760.166,602.341 760.665,601.861 760.87,601.24L771.24,570.39C771.251,570.358 771.26,570.324 771.265,570.29C771.321,569.955 771.096,569.633 770.766,569.578C770.731,569.572 770.695,569.57 770.66,569.57L767.07,569.57C766.55,569.571 766.083,569.905 765.91,570.4C763.07,578.427 760.437,586.647 758.01,595.06C757.943,595.287 757.817,595.4 757.63,595.4C757.443,595.407 757.317,595.293 757.25,595.06C754.763,586.667 752.07,578.467 749.17,570.46C748.993,569.969 748.528,569.64 748.01,569.64L744.42,569.66C744.383,569.66 744.346,569.663 744.31,569.669C743.98,569.726 743.757,570.049 743.816,570.385C743.821,570.417 743.829,570.449 743.84,570.48L754.43,601.26C754.64,601.879 755.142,602.356 755.77,602.53C755.93,602.577 756.557,602.597 757.65,602.59" style="fill:none;fill-rule:nonzero;stroke:rgb(116,28,26);stroke-width:2px;"/>
            <path d="M783.063,570.296C783.062,569.929 782.76,569.627 782.393,569.627C782.392,569.627 782.392,569.627 782.391,569.627L778.691,569.633C778.324,569.634 778.022,569.937 778.023,570.304L778.078,601.844C778.078,602.211 778.38,602.513 778.747,602.513C778.748,602.513 778.748,602.513 778.749,602.513L782.449,602.507C782.816,602.506 783.118,602.203 783.117,601.836L783.063,570.296" style="fill:none;fill-rule:nonzero;stroke:rgb(116,28,26);stroke-width:2px;"/>
            <path d="M811.97,598.77C811.97,598.359 811.631,598.02 811.22,598.02L798.48,598.02C798.069,598.02 797.73,597.681 797.73,597.27L797.73,588.72C797.73,588.309 798.069,587.97 798.48,587.97L809.8,587.97C810.211,587.97 810.55,587.631 810.55,587.22L810.55,583.88C810.55,583.469 810.211,583.13 809.8,583.13L798.55,583.13C798.139,583.13 797.8,582.791 797.8,582.38L797.8,574.86C797.8,574.449 798.139,574.11 798.55,574.11L810.76,574.11C811.171,574.11 811.51,573.771 811.51,573.36L811.51,570.38C811.51,569.969 811.171,569.63 810.76,569.63L793.27,569.63C792.859,569.63 792.52,569.969 792.52,570.38L792.52,601.81C792.52,602.221 792.859,602.56 793.27,602.56L811.22,602.56C811.631,602.56 811.97,602.221 811.97,601.81L811.97,598.77" style="fill:none;fill-rule:nonzero;stroke:rgb(116,28,26);stroke-width:2px;"/>
            <path d="M837.95,579.02C838.383,579.013 838.757,579.863 839.07,581.57C839.363,583.19 839.55,584.133 839.63,584.4C841.403,589.913 843.15,595.53 844.87,601.25C845.217,602.41 846.64,602.8 849.14,602.42C849.748,602.329 850.247,601.889 850.41,601.3L858.99,570.25C858.997,570.224 859.003,570.197 859.006,570.171C859.05,569.85 858.817,569.55 858.491,569.506C858.464,569.502 858.437,569.5 858.41,569.5L854.69,569.5C854.161,569.501 853.698,569.861 853.57,570.37L847.57,594.46C847.557,594.496 847.523,594.52 847.485,594.52C847.447,594.52 847.413,594.496 847.4,594.46L840.39,570.68C840.278,570.3 839.981,569.999 839.6,569.88C839.067,569.707 838.503,569.623 837.91,569.63C837.31,569.63 836.743,569.717 836.21,569.89C835.831,570.014 835.538,570.318 835.43,570.7L828.65,594.55C828.637,594.586 828.603,594.61 828.565,594.61C828.527,594.61 828.493,594.586 828.48,594.55L822.25,570.52C822.118,570.012 821.65,569.656 821.12,569.66L817.4,569.7C817.374,569.7 817.348,569.703 817.323,569.706C816.997,569.754 816.768,570.056 816.814,570.377C816.818,570.401 816.823,570.426 816.83,570.45L825.71,601.42C825.878,602.008 826.381,602.444 826.99,602.53C829.49,602.883 830.907,602.48 831.24,601.32C832.907,595.58 834.6,589.947 836.32,584.42C836.4,584.147 836.58,583.2 836.86,581.58C837.153,579.873 837.517,579.02 837.95,579.02" style="fill:none;fill-rule:nonzero;stroke:rgb(116,28,26);stroke-width:2px;"/>
            <path d="M870.63,588.49C870.63,588.252 870.827,588.055 871.07,588.05L882.51,587.86C883,587.855 883.404,587.46 883.42,586.97L883.46,584.13C883.46,584.123 883.46,584.117 883.46,584.11C883.46,583.56 883.01,583.105 882.46,583.1L871.31,583.11C870.964,583.11 870.68,582.826 870.68,582.48L870.6,574.68C870.6,574.673 870.6,574.667 870.6,574.66C870.6,574.356 870.846,574.105 871.15,574.1L883.47,574.06C883.93,574.06 884.309,573.686 884.31,573.231C884.31,573.231 884.31,573.23 884.31,573.23L884.32,570.35C884.32,569.917 883.963,569.56 883.53,569.56L865.79,569.67C865.543,569.67 865.34,569.873 865.34,570.12L865.43,601.82C865.435,602.224 865.766,602.552 866.164,602.55C866.166,602.55 866.168,602.55 866.17,602.55L883.78,602.56C883.785,602.56 883.791,602.56 883.796,602.56C884.481,602.552 885.039,601.976 885.03,601.285C885.03,601.28 885.03,601.275 885.03,601.27L884.99,599.33C884.974,598.584 884.356,597.98 883.61,597.98L871.18,597.98C871.177,597.98 871.173,597.98 871.17,597.98C870.888,597.98 870.655,597.751 870.65,597.47L870.63,588.49" style="fill:none;fill-rule:nonzero;stroke:rgb(116,28,26);stroke-width:2px;"/>
            <path d="M916.67,601.53L909,590.12C908.933,590.022 908.898,589.907 908.898,589.788C908.898,589.547 909.046,589.329 909.27,589.24C913.85,587.39 916.23,582.95 915.55,578.02C914.6,571.08 908.54,569.3 902.08,569.6C899.667,569.713 896.74,569.713 893.3,569.6C893.297,569.6 893.293,569.6 893.29,569.6C893.092,569.594 892.925,569.757 892.92,569.96C892.92,569.963 892.92,569.967 892.92,569.97L892.92,601.53C892.92,602.057 893.349,602.49 893.87,602.49L896.72,602.49C897.338,602.49 897.849,601.988 897.86,601.37L898.14,590.77C898.151,590.372 898.481,590.05 898.88,590.05C898.886,590.05 898.893,590.05 898.9,590.05L902.6,590.14C903.159,590.152 903.671,590.452 903.95,590.93L910.03,601.17C910.503,601.966 911.35,602.466 912.27,602.49L916.09,602.59C916.095,602.59 916.101,602.59 916.106,602.59C916.479,602.59 916.786,602.283 916.786,601.91C916.786,601.775 916.746,601.642 916.67,601.53" style="fill:none;fill-rule:nonzero;stroke:rgb(116,28,26);stroke-width:2px;"/>
            <path d="M370.65,602.55C371.723,602.55 372.377,602.547 372.61,602.54C372.97,602.529 373.26,602.23 373.26,601.87L373.26,574.82C373.26,574.518 373.508,574.27 373.81,574.27L381.63,574.27C382.047,574.27 382.39,573.922 382.39,573.5C382.39,573.5 382.39,570.53 382.39,570.53C382.39,570.113 382.047,569.77 381.63,569.77C381.627,569.77 381.623,569.77 381.62,569.77C378.153,569.83 374.503,569.837 370.67,569.79C366.837,569.83 363.187,569.82 359.72,569.76C359.717,569.76 359.713,569.76 359.71,569.76C359.293,569.76 358.95,570.103 358.95,570.52C358.95,570.52 358.94,573.49 358.94,573.49C358.94,573.912 359.282,574.259 359.699,574.26C359.699,574.26 359.7,574.26 359.7,574.26L367.52,574.27C367.822,574.27 368.07,574.518 368.07,574.82L368.04,601.87C368.045,602.23 368.34,602.525 368.7,602.53C368.927,602.543 369.577,602.55 370.65,602.55" style="fill:none;fill-rule:nonzero;stroke:rgb(116,28,26);stroke-width:2px;"/>
            <path d="M620.99,570.32C620.99,569.931 620.669,569.61 620.28,569.61L616.56,569.61C616.171,569.61 615.85,569.931 615.85,570.32L615.85,601.82C615.85,602.209 616.171,602.53 616.56,602.53L620.28,602.53C620.669,602.53 620.99,602.209 620.99,601.82L620.99,570.32" style="fill:none;fill-rule:nonzero;stroke:rgb(116,28,26);stroke-width:2px;"/>
            <path d="M482.68,452.42C482.68,445.848 477.272,440.44 470.7,440.44L469.8,440.44C463.228,440.44 457.82,445.848 457.82,452.42L457.82,502.14C457.82,508.712 463.228,514.12 469.8,514.12L470.7,514.12C477.272,514.12 482.68,508.712 482.68,502.14L482.68,452.42" style="fill:none;fill-rule:nonzero;stroke:rgb(116,28,26);stroke-width:2px;"/>
            <path d="M619.12,452.51C619.12,445.911 613.689,440.48 607.09,440.48L606.19,440.48C599.591,440.48 594.16,445.911 594.16,452.51L594.16,502.07C594.16,508.669 599.591,514.1 606.19,514.1L607.09,514.1C613.689,514.1 619.12,508.669 619.12,502.07L619.12,452.51" style="fill:none;fill-rule:nonzero;stroke:rgb(116,28,26);stroke-width:2px;"/>
            <path d="M845.9,452.43C845.9,445.858 840.492,440.45 833.92,440.45L833.04,440.45C826.468,440.45 821.06,445.858 821.06,452.43L821.06,502.09C821.06,508.662 826.468,514.07 833.04,514.07L833.92,514.07C840.492,514.07 845.9,508.662 845.9,502.09L845.9,452.43" style="fill:none;fill-rule:nonzero;stroke:rgb(116,28,26);stroke-width:2px;"/>
            <path d="M747.86,442.32L747.8,474.04C747.8,474.386 748.084,474.67 748.43,474.67L757.61,474.69C764.538,474.7 770.248,468.697 770.26,461.39L770.28,455.05C770.292,447.744 764.601,441.722 757.673,441.71C757.672,441.71 757.671,441.71 757.67,441.71L748.49,441.69C748.144,441.69 747.86,441.974 747.86,442.32" style="fill:none;fill-rule:nonzero;stroke:rgb(116,28,26);stroke-width:2px;"/>
            <path d="M469.22,574.87L469.22,597.07C469.22,597.564 469.626,597.97 470.12,597.97L474.21,597.97C479.657,597.97 484.14,593.397 484.14,587.84L484.14,584.1C484.14,578.543 479.657,573.97 474.21,573.97L470.12,573.97C469.626,573.97 469.22,574.376 469.22,574.87" style="fill:none;fill-rule:nonzero;stroke:rgb(116,28,26);stroke-width:2px;"/>
            <path d="M557.2,574.94L557.26,585.02C557.26,585.497 557.653,585.89 558.13,585.89L563.57,585.86C566.811,585.842 569.465,583.405 569.45,580.46L569.45,579.38C569.45,579.38 569.45,579.379 569.45,579.379C569.435,576.433 566.754,574.023 563.512,574.04C563.511,574.04 558.07,574.07 558.07,574.07C557.593,574.07 557.2,574.463 557.2,574.94" style="fill:none;fill-rule:nonzero;stroke:rgb(116,28,26);stroke-width:2px;"/>
            <path d="M649.64,574.87L649.7,585.07C649.7,585.498 650.052,585.85 650.48,585.85L655.81,585.82C659.128,585.802 661.845,583.252 661.83,580.17L661.83,579.65C661.83,579.649 661.83,579.649 661.83,579.648C661.814,576.565 659.07,574.043 655.751,574.06C655.75,574.06 650.42,574.09 650.42,574.09C649.992,574.09 649.64,574.442 649.64,574.87" style="fill:none;fill-rule:nonzero;stroke:rgb(116,28,26);stroke-width:2px;"/>
            <path d="M679.14,574.9L679.1,597.02C679.1,597.536 679.524,597.96 680.04,597.96L683.93,597.97C683.931,597.97 683.931,597.97 683.932,597.97C689.533,597.98 694.15,593.293 694.16,587.588C694.16,587.585 694.16,587.583 694.16,587.58L694.16,584.38C694.166,578.678 689.567,573.981 683.97,573.97L680.08,573.96C679.564,573.96 679.14,574.384 679.14,574.9" style="fill:none;fill-rule:nonzero;stroke:rgb(116,28,26);stroke-width:2px;"/>
            <path d="M898.03,574.95L898.07,584.57C898.07,585.047 898.463,585.44 898.94,585.44L904.5,585.42C907.752,585.408 910.419,583.065 910.41,580.23L910.41,579.21C910.41,579.21 910.41,579.21 910.41,579.209C910.4,576.373 907.715,574.049 904.462,574.06C904.461,574.06 898.9,574.08 898.9,574.08C898.423,574.08 898.03,574.473 898.03,574.95" style="fill:none;fill-rule:nonzero;stroke:rgb(116,28,26);stroke-width:2px;"/>
            <path d="M501.85,502.266C501.766,518.369 488.493,531.572 472.39,531.572C472.339,531.572 472.287,531.572 472.236,531.572L467.456,531.547C451.353,531.462 438.15,518.19 438.15,502.087C438.15,502.036 438.15,501.984 438.151,501.933L438.41,452.394C438.494,436.291 451.767,423.088 467.87,423.088C467.921,423.088 467.973,423.088 468.024,423.088L472.804,423.113C488.907,423.198 502.11,436.47 502.11,452.573C502.11,452.624 502.11,452.676 502.109,452.727L501.85,502.266ZM482.68,452.42C482.68,445.848 477.272,440.44 470.7,440.44L469.8,440.44C463.228,440.44 457.82,445.848 457.82,452.42L457.82,502.14C457.82,508.712 463.228,514.12 469.8,514.12L470.7,514.12C477.272,514.12 482.68,508.712 482.68,502.14L482.68,452.42Z" style="fill:rgb(212,38,37);fill-rule:nonzero;"/>
            <path d="M638.356,502.505C638.328,518.53 625.119,531.692 609.095,531.664L604.015,531.656C588.01,531.628 574.856,518.45 574.856,502.446C574.856,502.429 574.856,502.412 574.856,502.395L574.944,452.195C574.972,436.17 588.181,423.008 604.205,423.036L609.285,423.045C625.29,423.072 638.444,436.25 638.444,452.254C638.444,452.271 638.444,452.288 638.444,452.306L638.356,502.505ZM619.12,452.51C619.12,445.911 613.689,440.48 607.09,440.48L606.19,440.48C599.591,440.48 594.16,445.911 594.16,452.51L594.16,502.07C594.16,508.669 599.591,514.1 606.19,514.1L607.09,514.1C613.689,514.1 619.12,508.669 619.12,502.07L619.12,452.51Z" style="fill:rgb(212,38,37);fill-rule:nonzero;"/>
            <path d="M671.96,477.35C671.973,489.637 671.977,495.853 671.97,496C671.77,504.2 673.25,514.03 683.69,514.41C694.1,514.78 696.01,505.9 696.16,497.54C696.165,497.193 696.453,496.91 696.8,496.91L715.08,496.91C715.08,496.91 715.08,496.91 715.08,496.91C715.388,496.91 715.64,497.163 715.64,497.47C715.64,497.477 715.64,497.483 715.64,497.49C714.83,519.97 702.34,534.45 678.71,531.38C662.62,529.29 652.88,517.11 652.5,501.24C652.407,497.307 652.353,489.35 652.34,477.37C652.327,465.397 652.363,457.443 652.45,453.51C652.8,437.64 662.51,425.44 678.6,423.31C702.22,420.2 714.74,434.65 715.6,457.13C715.6,457.137 715.6,457.143 715.6,457.15C715.6,457.457 715.348,457.71 715.04,457.71C715.04,457.71 715.04,457.71 715.04,457.71L696.76,457.75C696.413,457.75 696.125,457.467 696.12,457.12C695.95,448.76 694.02,439.88 683.61,440.27C673.18,440.67 671.72,450.51 671.93,458.71C671.937,458.857 671.947,465.07 671.96,477.35Z" style="fill:rgb(212,38,37);fill-rule:nonzero;"/>
            <path d="M865.193,502.281C865.137,518.36 851.892,531.559 835.813,531.559C835.779,531.559 835.745,531.559 835.711,531.559L830.611,531.541C814.532,531.485 801.333,518.24 801.333,502.161C801.333,502.127 801.333,502.093 801.333,502.058L801.507,452.279C801.563,436.2 814.808,423.001 830.887,423.001C830.921,423.001 830.955,423.001 830.989,423.001L836.089,423.019C852.168,423.075 865.367,436.32 865.367,452.399C865.367,452.433 865.367,452.467 865.367,452.502L865.193,502.281ZM845.9,452.43C845.9,445.858 840.492,440.45 833.92,440.45L833.04,440.45C826.468,440.45 821.06,445.858 821.06,452.43L821.06,502.09C821.06,508.662 826.468,514.07 833.04,514.07L833.92,514.07C840.492,514.07 845.9,508.662 845.9,502.09L845.9,452.43Z" style="fill:rgb(212,38,37);fill-rule:nonzero;"/>
            <path d="M390.64,468.25C393.493,468.243 397.453,468.237 402.52,468.23C402.849,468.23 403.12,467.959 403.12,467.63L403.12,425.61C403.12,425.297 403.377,425.04 403.69,425.04L421.88,425.04C422.132,425.04 422.34,425.248 422.34,425.5L422.34,529.25C422.34,529.53 422.114,529.76 421.84,529.76L404,529.76C403.528,529.76 403.14,529.372 403.14,528.9L403.13,487.23C403.13,486.985 402.93,486.781 402.68,486.77C402.4,486.763 398.39,486.76 390.65,486.76C382.903,486.767 378.89,486.773 378.61,486.78C378.36,486.791 378.16,486.995 378.16,487.24L378.19,528.91C378.19,529.382 377.802,529.77 377.33,529.77L359.49,529.79C359.216,529.79 358.99,529.56 358.99,529.28L358.9,425.53C358.9,425.278 359.108,425.07 359.36,425.07L377.55,425.05C377.863,425.05 378.12,425.307 378.12,425.62L378.15,467.64C378.15,467.969 378.421,468.24 378.75,468.24C383.817,468.247 387.78,468.25 390.64,468.25Z" style="fill:rgb(212,38,37);fill-rule:nonzero;"/>
            <path d="M536.35,425.6L536.35,512.09C536.35,512.441 536.639,512.73 536.99,512.73L565.94,512.73C566.291,512.73 566.58,513.019 566.58,513.37L566.58,529.04C566.58,529.391 566.291,529.68 565.94,529.68L517.67,529.68C517.319,529.68 517.03,529.391 517.03,529.04L517.03,425.6C517.03,425.249 517.319,424.96 517.67,424.96L535.71,424.96C536.061,424.96 536.35,425.249 536.35,425.6Z" style="fill:rgb(212,38,37);fill-rule:nonzero;"/>
            <path d="M790.76,529.03C790.78,529.085 790.79,529.142 790.79,529.2C790.79,529.474 790.564,529.7 790.29,529.7L771.82,529.7C771.026,529.699 770.319,529.189 770.07,528.44L757.85,491.79C757.678,491.277 757.197,490.929 756.66,490.93L748.45,490.93C748.11,490.93 747.83,491.214 747.83,491.56L747.83,529.12C747.83,529.427 747.573,529.68 747.26,529.68L729.13,529.68C728.614,529.68 728.19,529.256 728.19,528.74L728.19,425.38C728.19,425.199 728.334,425.05 728.51,425.05C742.563,424.85 753.823,424.883 762.29,425.15C764.563,425.223 767.837,425.997 772.11,427.47C783.31,431.33 789,442.15 789.21,453.76C789.45,467.14 788.44,478.94 775.82,486.3C775.492,486.494 775.347,486.897 775.48,487.25L790.76,529.03ZM747.86,442.32L747.8,474.04C747.8,474.386 748.084,474.67 748.43,474.67L757.61,474.69C764.538,474.7 770.248,468.697 770.26,461.39L770.28,455.05C770.292,447.744 764.601,441.722 757.673,441.71C757.672,441.71 757.671,441.71 757.67,441.71L748.49,441.69C748.144,441.69 747.86,441.974 747.86,442.32Z" style="fill:rgb(212,38,37);fill-rule:nonzero;"/>
            <path d="M896.84,529.66L880.47,529.66C880.267,529.66 880.1,529.493 880.1,529.29L880.1,425.33C880.1,425.127 880.267,424.96 880.47,424.96L898.26,424.96C898.409,424.961 898.544,425.052 898.6,425.19L925.22,492.87C925.278,493.006 925.412,493.095 925.56,493.095C925.758,493.095 925.922,492.937 925.93,492.74L925.93,425.36C925.93,425.157 926.097,424.99 926.3,424.99L941.81,424.99C942.013,424.99 942.18,425.157 942.18,425.36L942.18,529.31C942.18,529.513 942.013,529.68 941.81,529.68L924.13,529.68C923.981,529.679 923.846,529.588 923.79,529.45L897.92,463.69C897.862,463.554 897.728,463.465 897.58,463.465C897.382,463.465 897.218,463.623 897.21,463.82L897.21,529.29C897.21,529.493 897.043,529.66 896.84,529.66Z" style="fill:rgb(212,38,37);fill-rule:nonzero;"/>
            <path d="M401.34,587.92C397.513,587.927 395.467,587.933 395.2,587.94C394.92,587.94 394.69,588.17 394.69,588.45L394.72,601.76C394.72,601.763 394.72,601.767 394.72,601.77C394.72,602.291 394.291,602.72 393.77,602.72C393.77,602.72 390.32,602.73 390.32,602.73C390.317,602.73 390.313,602.73 390.31,602.73C389.789,602.73 389.36,602.301 389.36,601.78C389.36,601.78 389.36,601.78 389.36,601.78L389.28,570.2C389.28,569.795 389.608,569.461 390.007,569.46C390.008,569.46 390.009,569.46 390.01,569.46L393.84,569.44C393.843,569.44 393.847,569.44 393.85,569.44C394.283,569.44 394.64,569.797 394.64,570.23C394.64,570.23 394.67,582.43 394.67,582.43C394.67,582.43 394.67,582.43 394.67,582.43C394.67,582.754 394.936,583.02 395.26,583.02C395.263,583.02 395.267,583.02 395.27,583.02C397.197,583.007 399.213,582.997 401.32,582.99C403.433,582.983 405.453,582.983 407.38,582.99C407.383,582.99 407.387,582.99 407.39,582.99C407.714,582.99 407.98,582.724 407.98,582.4C407.98,582.4 407.98,582.4 407.98,582.4L407.94,570.2C407.94,569.767 408.297,569.41 408.73,569.41L412.57,569.4C412.97,569.4 413.3,569.734 413.3,570.14L413.38,601.71C413.38,601.713 413.38,601.717 413.38,601.72C413.38,602.241 412.951,602.67 412.43,602.67C412.43,602.67 408.98,602.68 408.98,602.68C408.977,602.68 408.973,602.68 408.97,602.68C408.449,602.68 408.02,602.251 408.02,601.73C408.02,601.73 407.99,588.41 407.99,588.41C407.99,588.13 407.76,587.9 407.48,587.9C407.207,587.9 405.16,587.907 401.34,587.92Z" style="fill:rgb(212,38,37);fill-rule:nonzero;"/>
            <path d="M428.7,588.47L428.7,597.46C428.7,597.745 428.935,597.98 429.22,597.98L441.67,598.02C442.416,598.025 443.029,598.634 443.04,599.38L443.08,601.31C443.08,601.32 443.081,601.329 443.081,601.339C443.087,602.03 442.527,602.604 441.842,602.61C441.834,602.61 441.827,602.61 441.82,602.61L424.19,602.53C424.187,602.53 424.184,602.53 424.181,602.53C423.781,602.531 423.451,602.197 423.45,601.791C423.45,601.791 423.45,601.79 423.45,601.79L423.48,570.06C423.48,569.813 423.683,569.61 423.93,569.61L441.69,569.56C441.69,569.56 441.69,569.56 441.69,569.56C442.123,569.56 442.48,569.917 442.48,570.35C442.48,570.353 442.48,570.357 442.48,570.36L442.45,573.25C442.445,573.702 442.067,574.07 441.61,574.07C441.61,574.07 429.28,574.07 429.28,574.07C428.973,574.07 428.72,574.323 428.72,574.63C428.72,574.633 428.72,574.637 428.72,574.64L428.77,582.45C428.77,582.45 428.77,582.45 428.77,582.45C428.77,582.796 429.054,583.08 429.4,583.08C429.403,583.08 429.407,583.08 429.41,583.08L440.56,583.12C440.56,583.12 440.56,583.12 440.56,583.12C441.115,583.12 441.57,583.576 441.57,584.13C441.57,584.14 441.57,584.15 441.57,584.16L441.51,586.99C441.494,587.48 441.09,587.875 440.6,587.88L429.14,588.03C428.897,588.035 428.7,588.232 428.7,588.47Z" style="fill:rgb(212,38,37);fill-rule:nonzero;"/>
            <path d="M464.05,570.19C464.05,569.839 464.339,569.55 464.69,569.55L474.9,569.53C474.902,569.53 474.903,569.53 474.905,569.53C483.04,569.516 489.746,576.09 489.76,584.094C489.76,584.096 489.76,584.098 489.76,584.1L489.76,587.86C489.771,595.86 483.092,602.453 474.96,602.47L464.75,602.49C464.399,602.49 464.11,602.201 464.11,601.85L464.05,570.19ZM469.22,574.87L469.22,597.07C469.22,597.564 469.626,597.97 470.12,597.97L474.21,597.97C479.657,597.97 484.14,593.397 484.14,587.84L484.14,584.1C484.14,578.543 479.657,573.97 474.21,573.97L470.12,573.97C469.626,573.97 469.22,574.376 469.22,574.87Z" style="fill:rgb(212,38,37);fill-rule:nonzero;"/>
            <path d="M502.75,588.47L502.74,597.44C502.74,597.725 502.975,597.96 503.26,597.96L515.69,598.01C516.436,598.015 517.049,598.624 517.06,599.37L517.09,601.3C517.09,601.306 517.09,601.313 517.09,601.319C517.096,602.01 516.537,602.584 515.851,602.59C515.844,602.59 515.837,602.59 515.83,602.59L498.23,602.5C497.83,602.5 497.5,602.166 497.5,601.76L497.54,570.08C497.54,569.833 497.743,569.63 497.99,569.63L515.73,569.6C516.163,569.6 516.52,569.957 516.52,570.39L516.49,573.28C516.485,573.732 516.107,574.1 515.65,574.1C515.65,574.1 503.34,574.09 503.34,574.09C503.033,574.09 502.78,574.343 502.78,574.65C502.78,574.653 502.78,574.657 502.78,574.66L502.82,582.46C502.82,582.46 502.82,582.46 502.82,582.46C502.82,582.806 503.104,583.09 503.45,583.09C503.453,583.09 503.457,583.09 503.46,583.09L514.6,583.13C515.15,583.135 515.6,583.589 515.6,584.14C515.6,584.15 515.6,584.16 515.6,584.17L515.54,587C515.524,587.49 515.12,587.885 514.63,587.89L503.19,588.03C502.947,588.035 502.75,588.232 502.75,588.47Z" style="fill:rgb(212,38,37);fill-rule:nonzero;"/>
            <path d="M531.83,598.01L543.82,598.01C544.204,598.01 544.52,598.326 544.52,598.71L544.52,601.88C544.52,602.264 544.204,602.58 543.82,602.58L526.8,602.58C526.416,602.58 526.1,602.264 526.1,601.88L526.1,570.33C526.1,569.946 526.416,569.63 526.8,569.63L530.43,569.63C530.814,569.63 531.13,569.946 531.13,570.33L531.13,597.31C531.13,597.694 531.446,598.01 531.83,598.01Z" style="fill:rgb(212,38,37);fill-rule:nonzero;"/>
            <path d="M552.73,569.7C557.99,569.533 562.403,569.567 565.97,569.8C569.92,570.05 573.72,573.15 574.44,577.24C576.45,588.68 567.04,591.44 557.92,590.5C557.9,590.498 557.88,590.497 557.86,590.497C557.514,590.497 557.23,590.782 557.23,591.127C557.23,591.128 557.23,591.129 557.23,591.13L557.23,601.66C557.23,602.176 556.806,602.6 556.29,602.6L552.94,602.6C552.435,602.6 552.02,602.189 552.02,601.69L552.02,570.43C552.02,570.037 552.337,569.711 552.73,569.7ZM557.2,574.94L557.26,585.02C557.26,585.497 557.653,585.89 558.13,585.89L563.57,585.86C566.811,585.842 569.465,583.405 569.45,580.46L569.45,579.38C569.45,579.38 569.45,579.379 569.45,579.379C569.435,576.433 566.754,574.023 563.512,574.04C563.511,574.04 558.07,574.07 558.07,574.07C557.593,574.07 557.2,574.463 557.2,574.94Z" style="fill:rgb(212,38,37);fill-rule:nonzero;"/>
            <path d="M593.6,583.04C595.687,583.04 597.677,583.047 599.57,583.06C599.894,583.06 600.16,582.794 600.16,582.47L600.16,570.45C600.16,570.022 600.512,569.67 600.94,569.67L604.72,569.67C605.115,569.67 605.44,570 605.44,570.4L605.44,601.52C605.44,602.036 605.016,602.46 604.5,602.46L601.1,602.46C600.584,602.46 600.16,602.036 600.16,601.52L600.16,588.4C600.16,588.129 599.936,587.905 599.66,587.9C599.393,587.893 597.373,587.89 593.6,587.89C589.833,587.89 587.817,587.893 587.55,587.9C587.274,587.905 587.05,588.129 587.05,588.4L587.05,601.52C587.05,602.036 586.626,602.46 586.11,602.46L582.71,602.46C582.194,602.46 581.77,602.036 581.77,601.52L581.76,570.4C581.76,570 582.085,569.67 582.48,569.67L586.26,569.67C586.688,569.67 587.04,570.022 587.04,570.45L587.05,582.47C587.05,582.794 587.316,583.06 587.64,583.06C589.533,583.047 591.52,583.04 593.6,583.04Z" style="fill:rgb(212,38,37);fill-rule:nonzero;"/>
            <path d="M644.4,570.42C644.4,570.027 644.717,569.701 645.11,569.69C650.357,569.517 654.76,569.547 658.32,569.78C662.26,570.02 666.06,573.11 666.78,577.19C668.8,588.6 659.41,591.36 650.32,590.44C650.3,590.438 650.28,590.437 650.26,590.437C649.914,590.437 649.63,590.722 649.63,591.067C649.63,591.068 649.63,591.069 649.63,591.07L649.64,601.57C649.64,602.086 649.216,602.51 648.7,602.51L645.36,602.51C644.859,602.51 644.445,602.105 644.44,601.61L644.4,570.42ZM649.64,574.87L649.7,585.07C649.7,585.498 650.052,585.85 650.48,585.85L655.81,585.82C659.128,585.802 661.845,583.252 661.83,580.17L661.83,579.65C661.83,579.649 661.83,579.649 661.83,579.648C661.814,576.565 659.07,574.043 655.751,574.06C655.75,574.06 650.42,574.09 650.42,574.09C649.992,574.09 649.64,574.442 649.64,574.87Z" style="fill:rgb(212,38,37);fill-rule:nonzero;"/>
            <path d="M674.05,570.06C674.05,569.753 674.303,569.5 674.61,569.5L685.07,569.5C693.079,569.5 699.67,576.091 699.67,584.1L699.67,587.88C699.67,595.889 693.079,602.48 685.07,602.48L674.61,602.48C674.303,602.48 674.05,602.227 674.05,601.92L674.05,570.06ZM679.14,574.9L679.1,597.02C679.1,597.536 679.524,597.96 680.04,597.96L683.93,597.97C683.931,597.97 683.931,597.97 683.932,597.97C689.533,597.98 694.15,593.293 694.16,587.588C694.16,587.585 694.16,587.583 694.16,587.58L694.16,584.38C694.166,578.678 689.567,573.981 683.97,573.97L680.08,573.96C679.564,573.96 679.14,574.384 679.14,574.9Z" style="fill:rgb(212,38,37);fill-rule:nonzero;"/>
            <path d="M713.23,589.09L713.23,601.77C713.23,602.176 712.896,602.51 712.49,602.51L708.8,602.51C708.394,602.51 708.06,602.176 708.06,601.77L708.06,570.42C708.06,570.014 708.394,569.68 708.8,569.68L726.25,569.68C726.656,569.68 726.99,570.014 726.99,570.42L726.99,573.44C726.99,573.846 726.656,574.18 726.25,574.18L713.89,574.18C713.484,574.18 713.15,574.514 713.15,574.92L713.15,583C713.15,583.406 713.484,583.74 713.89,583.74L724.13,583.74C724.536,583.74 724.87,584.074 724.87,584.48L724.87,587.61C724.87,588.016 724.536,588.35 724.13,588.35L713.97,588.35C713.564,588.35 713.23,588.684 713.23,589.09Z" style="fill:rgb(212,38,37);fill-rule:nonzero;"/>
            <path d="M757.63,595.4C757.817,595.4 757.943,595.287 758.01,595.06C760.437,586.647 763.07,578.427 765.91,570.4C766.083,569.905 766.55,569.571 767.07,569.57L770.66,569.57C770.695,569.57 770.731,569.572 770.766,569.578C771.096,569.633 771.321,569.955 771.265,570.29C771.26,570.324 771.251,570.358 771.24,570.39L760.87,601.24C760.665,601.861 760.166,602.341 759.54,602.52C759.38,602.56 758.75,602.583 757.65,602.59C756.557,602.597 755.93,602.577 755.77,602.53C755.142,602.356 754.64,601.879 754.43,601.26L743.84,570.48C743.829,570.449 743.821,570.417 743.816,570.385C743.757,570.049 743.98,569.726 744.31,569.669C744.346,569.663 744.383,569.66 744.42,569.66L748.01,569.64C748.528,569.64 748.993,569.969 749.17,570.46C752.07,578.467 754.763,586.667 757.25,595.06C757.317,595.293 757.443,595.407 757.63,595.4Z" style="fill:rgb(212,38,37);fill-rule:nonzero;"/>
            <g transform="matrix(0.999998,-0.00174533,0.00174533,0.999998,780.57,586.07)">
                <path d="M2.52,-15.77L2.52,15.77C2.52,16.14 2.22,16.44 1.85,16.44L-1.85,16.44C-2.22,16.44 -2.52,16.14 -2.52,15.77L-2.52,-15.77C-2.52,-16.14 -2.22,-16.44 -1.85,-16.44L1.85,-16.44C2.22,-16.44 2.52,-16.14 2.52,-15.77Z" style="fill:rgb(212,38,37);"/>
            </g>
            <path d="M811.97,598.77L811.97,601.81C811.97,602.221 811.631,602.56 811.22,602.56L793.27,602.56C792.859,602.56 792.52,602.221 792.52,601.81L792.52,570.38C792.52,569.969 792.859,569.63 793.27,569.63L810.76,569.63C811.171,569.63 811.51,569.969 811.51,570.38L811.51,573.36C811.51,573.771 811.171,574.11 810.76,574.11L798.55,574.11C798.139,574.11 797.8,574.449 797.8,574.86L797.8,582.38C797.8,582.791 798.139,583.13 798.55,583.13L809.8,583.13C810.211,583.13 810.55,583.469 810.55,583.88L810.55,587.22C810.55,587.631 810.211,587.97 809.8,587.97L798.48,587.97C798.069,587.97 797.73,588.309 797.73,588.72L797.73,597.27C797.73,597.681 798.069,598.02 798.48,598.02L811.22,598.02C811.631,598.02 811.97,598.359 811.97,598.77Z" style="fill:rgb(212,38,37);fill-rule:nonzero;"/>
            <path d="M837.91,569.63C838.503,569.623 839.067,569.707 839.6,569.88C839.981,569.999 840.278,570.3 840.39,570.68L847.4,594.46C847.413,594.496 847.447,594.52 847.485,594.52C847.523,594.52 847.557,594.496 847.57,594.46L853.57,570.37C853.698,569.861 854.161,569.501 854.69,569.5L858.41,569.5C858.437,569.5 858.464,569.502 858.491,569.506C858.817,569.55 859.05,569.85 859.006,570.171C859.003,570.197 858.997,570.224 858.99,570.25L850.41,601.3C850.247,601.889 849.748,602.329 849.14,602.42C846.64,602.8 845.217,602.41 844.87,601.25C843.15,595.53 841.403,589.913 839.63,584.4C839.55,584.133 839.363,583.19 839.07,581.57C838.757,579.863 838.383,579.013 837.95,579.02C837.517,579.02 837.153,579.873 836.86,581.58C836.58,583.2 836.4,584.147 836.32,584.42C834.6,589.947 832.907,595.58 831.24,601.32C830.907,602.48 829.49,602.883 826.99,602.53C826.381,602.444 825.878,602.008 825.71,601.42L816.83,570.45C816.823,570.426 816.818,570.401 816.814,570.377C816.768,570.056 816.997,569.754 817.323,569.706C817.348,569.703 817.374,569.7 817.4,569.7L821.12,569.66C821.65,569.656 822.118,570.012 822.25,570.52L828.48,594.55C828.493,594.586 828.527,594.61 828.565,594.61C828.603,594.61 828.637,594.586 828.65,594.55L835.43,570.7C835.538,570.318 835.831,570.014 836.21,569.89C836.743,569.717 837.31,569.63 837.91,569.63Z" style="fill:rgb(212,38,37);fill-rule:nonzero;"/>
            <path d="M870.63,588.49L870.65,597.47C870.655,597.751 870.888,597.98 871.17,597.98C871.173,597.98 871.177,597.98 871.18,597.98L883.61,597.98C884.356,597.98 884.974,598.584 884.99,599.33L885.03,601.27C885.03,601.275 885.03,601.28 885.03,601.285C885.039,601.976 884.481,602.552 883.796,602.56C883.791,602.56 883.785,602.56 883.78,602.56L866.17,602.55C866.168,602.55 866.166,602.55 866.164,602.55C865.766,602.552 865.435,602.224 865.43,601.82L865.34,570.12C865.34,569.873 865.543,569.67 865.79,569.67L883.53,569.56C883.963,569.56 884.32,569.917 884.32,570.35L884.31,573.23C884.31,573.23 884.31,573.231 884.31,573.231C884.309,573.686 883.93,574.06 883.47,574.06L871.15,574.1C870.846,574.105 870.6,574.356 870.6,574.66C870.6,574.667 870.6,574.673 870.6,574.68L870.68,582.48C870.68,582.826 870.964,583.11 871.31,583.11L882.46,583.1C883.01,583.105 883.46,583.56 883.46,584.11C883.46,584.117 883.46,584.123 883.46,584.13L883.42,586.97C883.404,587.46 883,587.855 882.51,587.86L871.07,588.05C870.827,588.055 870.63,588.252 870.63,588.49Z" style="fill:rgb(212,38,37);fill-rule:nonzero;"/>
            <path d="M916.67,601.53C916.746,601.642 916.786,601.775 916.786,601.91C916.786,602.283 916.479,602.59 916.106,602.59C916.101,602.59 916.095,602.59 916.09,602.59L912.27,602.49C911.35,602.466 910.503,601.966 910.03,601.17L903.95,590.93C903.671,590.452 903.159,590.152 902.6,590.14L898.9,590.05C898.893,590.05 898.886,590.05 898.88,590.05C898.481,590.05 898.151,590.372 898.14,590.77L897.86,601.37C897.849,601.988 897.338,602.49 896.72,602.49L893.87,602.49C893.349,602.49 892.92,602.057 892.92,601.53L892.92,569.97C892.92,569.967 892.92,569.963 892.92,569.96C892.925,569.757 893.092,569.594 893.29,569.6C893.293,569.6 893.297,569.6 893.3,569.6C896.74,569.713 899.667,569.713 902.08,569.6C908.54,569.3 914.6,571.08 915.55,578.02C916.23,582.95 913.85,587.39 909.27,589.24C909.046,589.329 908.898,589.547 908.898,589.788C908.898,589.907 908.933,590.022 909,590.12L916.67,601.53ZM898.03,574.95L898.07,584.57C898.07,585.047 898.463,585.44 898.94,585.44L904.5,585.42C907.752,585.408 910.419,583.065 910.41,580.23L910.41,579.21C910.41,579.21 910.41,579.21 910.41,579.209C910.4,576.373 907.715,574.049 904.462,574.06C904.461,574.06 898.9,574.08 898.9,574.08C898.423,574.08 898.03,574.473 898.03,574.95Z" style="fill:rgb(212,38,37);fill-rule:nonzero;"/>
            <path d="M370.67,569.79C374.503,569.837 378.153,569.83 381.62,569.77C381.623,569.77 381.627,569.77 381.63,569.77C382.047,569.77 382.39,570.113 382.39,570.53C382.39,570.53 382.39,573.5 382.39,573.5C382.39,573.922 382.047,574.27 381.63,574.27L373.81,574.27C373.508,574.27 373.26,574.518 373.26,574.82L373.26,601.87C373.26,602.23 372.97,602.529 372.61,602.54C372.377,602.547 371.723,602.55 370.65,602.55C369.577,602.55 368.927,602.543 368.7,602.53C368.34,602.525 368.045,602.23 368.04,601.87L368.07,574.82C368.07,574.518 367.822,574.27 367.52,574.27L359.7,574.26C359.7,574.26 359.699,574.26 359.699,574.26C359.282,574.259 358.94,573.912 358.94,573.49C358.94,573.49 358.95,570.52 358.95,570.52C358.95,570.103 359.293,569.76 359.71,569.76C359.713,569.76 359.717,569.76 359.72,569.76C363.187,569.82 366.837,569.83 370.67,569.79Z" style="fill:rgb(212,38,37);fill-rule:nonzero;"/>
            <path d="M620.99,570.32L620.99,601.82C620.99,602.212 620.672,602.53 620.28,602.53L616.56,602.53C616.168,602.53 615.85,602.212 615.85,601.82L615.85,570.32C615.85,569.928 616.168,569.61 616.56,569.61L620.28,569.61C620.672,569.61 620.99,569.928 620.99,570.32Z" style="fill:rgb(212,38,37);"/>
        </g>
        <g transform="matrix(1,0,0,1,0.211097,33.6908)">
            <path d="M306.79,423.15C306.6,420.18 306.51,417.75 304.21,415.81C303.05,414.83 300.2,413.013 295.66,410.36C290.18,407.153 279.187,400.53 262.68,390.49C251.507,383.697 243.953,379.17 240.02,376.91C232.707,372.71 225.087,368.303 217.16,363.69C211.17,360.2 206.14,355.04 198.88,359.35C186.54,366.677 173.33,374.87 159.25,383.93C144.357,393.523 133.977,400.067 128.11,403.56C117.957,409.613 110.883,414.06 106.89,416.9C104.26,418.78 103.76,422.97 103.93,425.76C104.037,427.593 103.983,447.48 103.77,485.42C103.637,508.827 103.71,524.86 103.99,533.52C104.117,537.633 106.213,540.87 110.28,543.23C133.24,556.55 163.093,574.86 199.84,598.16C205.59,601.81 208.95,600.96 214.66,597.52C218.313,595.313 228.7,588.837 245.82,578.09C254.8,572.457 272.38,561.697 298.56,545.81C302.54,543.39 305.74,541.83 306.64,538.08C306.987,536.64 307.157,534.16 307.15,530.64C307.083,495.64 307.057,466.273 307.07,442.54C307.07,432.6 306.977,426.137 306.79,423.15" style="fill:none;fill-rule:nonzero;stroke:rgb(21,22,20);stroke-width:2px;"/>
            <path d="M305.58,423.89C305.4,420.96 305.31,418.56 303.04,416.64C301.893,415.673 299.077,413.877 294.59,411.25C289.177,408.083 278.313,401.537 262,391.61C250.96,384.897 243.497,380.423 239.61,378.19C232.383,374.037 224.853,369.68 217.02,365.12C211.1,361.67 206.13,356.57 198.96,360.83C186.767,368.07 173.71,376.163 159.79,385.11C145.077,394.59 134.82,401.057 129.02,404.51C118.987,410.49 111.997,414.883 108.05,417.69C105.45,419.54 104.96,423.69 105.12,426.44C105.227,428.253 105.173,447.907 104.96,485.4C104.82,508.527 104.89,524.37 105.17,532.93C105.29,536.997 107.36,540.193 111.38,542.52C134.067,555.687 163.563,573.787 199.87,596.82C205.56,600.43 208.88,599.59 214.52,596.19C218.133,594.01 228.397,587.61 245.31,576.99C254.19,571.423 271.563,560.793 297.43,545.1C301.37,542.71 304.53,541.17 305.42,537.46C305.76,536.04 305.93,533.59 305.93,530.11C305.863,495.523 305.84,466.503 305.86,443.05C305.86,433.23 305.767,426.843 305.58,423.89" style="fill:none;fill-rule:nonzero;stroke:rgb(129,128,126);stroke-width:2px;"/>
            <path d="M118.82,420.85C118.784,420.87 118.751,420.895 118.722,420.924C118.537,421.105 118.531,421.401 118.708,421.582C118.738,421.613 118.772,421.639 118.81,421.66C128.303,427.073 137.497,432.537 146.39,438.05C147.99,439.04 149.46,438.93 150.93,437.95C166.323,427.717 182.16,417.977 198.44,408.73C199.427,408.17 199.93,407.183 199.95,405.77C200.11,392.537 200.097,381.107 199.91,371.48C199.899,371.098 199.582,370.79 199.2,370.79C199.066,370.79 198.934,370.828 198.82,370.9C193.7,374.193 176.707,385.003 147.84,403.33C136.813,410.323 127.14,416.163 118.82,420.85" style="fill:none;fill-rule:nonzero;stroke:rgb(129,128,126);stroke-width:2px;"/>
            <path d="M291.8,420.94C291.939,420.86 292.026,420.711 292.026,420.55C292.026,420.389 291.939,420.24 291.8,420.16L209.71,371.43C209.64,371.389 209.561,371.367 209.48,371.367C209.233,371.367 209.03,371.57 209.03,371.817C209.03,371.818 209.03,371.819 209.03,371.82L209.03,406.6C209.031,406.762 209.119,406.911 209.26,406.99L263.39,437.53C263.529,437.61 263.701,437.61 263.84,437.53L291.8,420.94" style="fill:none;fill-rule:nonzero;stroke:rgb(129,128,126);stroke-width:2px;"/>
            <path d="M157.93,444.91L205.82,473.34C206.539,473.763 207.436,473.751 208.14,473.31L254.26,444.18C254.316,444.145 254.368,444.103 254.414,444.056C254.719,443.739 254.706,443.226 254.385,442.917C254.338,442.872 254.286,442.833 254.23,442.8C240.463,434.98 227.39,427.723 215.01,421.03C212.043,419.43 209.093,417.977 206.16,416.67C204.84,416.083 203.687,416.083 202.7,416.67C190.067,424.163 175.14,433.407 157.92,444.4C157.835,444.455 157.783,444.55 157.783,444.652C157.783,444.758 157.839,444.856 157.93,444.91" style="fill:none;fill-rule:nonzero;stroke:rgb(129,128,126);stroke-width:2px;"/>
            <path d="M296.91,527.59L296.91,429.53C296.906,429.237 296.663,428.998 296.37,428.998C296.275,428.998 296.182,429.023 296.1,429.07L270.43,444.3C269.823,444.66 269.45,445.315 269.45,446.02C269.56,466.55 269.09,489 269.89,510.21C269.921,511.004 270.345,511.732 271.02,512.15L296.6,527.77C296.617,527.781 296.635,527.789 296.654,527.794C296.759,527.823 296.872,527.756 296.902,527.645C296.907,527.627 296.91,527.608 296.91,527.59" style="fill:none;fill-rule:nonzero;stroke:rgb(129,128,126);stroke-width:2px;"/>
            <path d="M114.23,430.12L114.23,528.63C114.23,528.63 114.23,528.63 114.23,528.63C114.23,528.729 114.311,528.81 114.41,528.81C114.446,528.81 114.48,528.8 114.51,528.78C115.53,528.14 116.46,527.13 117.85,526.17C125.517,520.903 133.04,516.08 140.42,511.7C142.113,510.693 142.96,509.613 142.96,508.46C142.94,495.12 143.077,475.077 143.37,448.33C143.382,447.353 142.866,446.44 142.02,445.94L114.82,429.79C114.76,429.754 114.69,429.735 114.62,429.735C114.408,429.735 114.233,429.908 114.23,430.12" style="fill:none;fill-rule:nonzero;stroke:rgb(129,128,126);stroke-width:2px;"/>
            <path d="M260.08,451.1C255.593,454.233 250.93,457.31 246.09,460.33C235.53,466.917 225.03,473.493 214.59,480.06C213.46,480.77 212,481.65 211.92,482.99C211.74,486.17 211.65,488.68 211.65,490.52C211.65,520.88 211.637,537.05 211.61,539.03C211.61,539.031 211.61,539.033 211.61,539.034C211.61,539.232 211.772,539.394 211.97,539.394C212.037,539.394 212.103,539.375 212.16,539.34C227.413,529.6 243.297,520.133 259.81,510.94C260.385,510.616 260.73,509.996 260.7,509.34C259.813,490.013 259.853,470.737 260.82,451.51C260.82,451.501 260.821,451.493 260.821,451.484C260.821,451.226 260.609,451.014 260.351,451.014C260.254,451.014 260.159,451.044 260.08,451.1" style="fill:none;fill-rule:nonzero;stroke:rgb(129,128,126);stroke-width:2px;"/>
            <path d="M152.48,509.06C152.479,509.327 152.615,509.576 152.84,509.72L201.26,540.78C201.385,540.86 201.531,540.903 201.68,540.903C202.108,540.903 202.46,540.551 202.46,540.123C202.46,540.122 202.46,540.121 202.46,540.12L202.46,483.08C202.462,482.808 202.322,482.553 202.09,482.41L153.67,452.83C153.547,452.754 153.405,452.714 153.26,452.714C152.832,452.714 152.48,453.066 152.48,453.494C152.48,453.496 152.48,453.498 152.48,453.5L152.48,509.06" style="fill:none;fill-rule:nonzero;stroke:rgb(129,128,126);stroke-width:2px;"/>
            <path d="M201.65,587.46C201.74,587.516 201.844,587.545 201.95,587.545C202.263,587.545 202.52,587.288 202.52,586.975C202.52,586.974 202.52,586.972 202.52,586.97L202.52,552.98C202.52,552.094 202.052,551.272 201.29,550.82C191.93,545.26 185.5,541.61 176.95,535.97C165.123,528.163 156.253,522.537 150.34,519.09C148.573,518.063 146.697,518.17 144.71,519.41C136.723,524.39 128.317,529.917 119.49,535.99C119.356,536.081 119.275,536.233 119.275,536.396C119.275,536.57 119.369,536.733 119.52,536.82C139.987,548.587 161.35,561.613 183.61,575.9C195.077,583.253 201.09,587.107 201.65,587.46" style="fill:none;fill-rule:nonzero;stroke:rgb(129,128,126);stroke-width:2px;"/>
            <path d="M264.89,518.69C264.788,518.622 264.656,518.618 264.55,518.68L211.7,550.05C211.603,550.106 211.543,550.208 211.54,550.32L211.54,586.84C211.54,586.843 211.54,586.846 211.54,586.849C211.54,587.025 211.684,587.169 211.86,587.169C211.92,587.169 211.979,587.152 212.03,587.12L292.68,537.06C292.772,537.001 292.828,536.899 292.828,536.79C292.828,536.681 292.772,536.579 292.68,536.52L264.89,518.69" style="fill:none;fill-rule:nonzero;stroke:rgb(129,128,126);stroke-width:2px;"/>
            <path d="M197.28,373.46L126.23,418.32C125.805,418.592 125.348,418.807 124.87,418.96C123.723,419.347 122.727,419.903 121.88,420.63C121.698,420.784 121.593,421.01 121.593,421.249C121.593,421.531 121.74,421.793 121.98,421.94L146.96,437.19C147.723,437.656 148.658,437.745 149.49,437.43C150.41,437.083 151.473,436.51 152.68,435.71C167.267,426.023 182.377,416.763 198.01,407.93C198.581,407.61 198.932,406.998 198.92,406.34L198.28,374C198.276,373.646 197.984,373.358 197.63,373.358C197.506,373.358 197.385,373.393 197.28,373.46" style="fill:none;fill-rule:nonzero;stroke:rgb(25,33,35);stroke-width:2px;"/>
            <path d="M288.42,421.77C288.82,421.53 289.065,421.096 289.065,420.63C289.065,420.164 288.82,419.73 288.42,419.49L212.82,374.62C212.614,374.497 212.379,374.433 212.14,374.433C211.422,374.433 210.828,375.013 210.81,375.73L210.05,405.37C210.039,405.861 210.301,406.32 210.73,406.56L263.02,436.06C263.433,436.294 263.941,436.29 264.35,436.05L288.42,421.77" style="fill:none;fill-rule:nonzero;stroke:rgb(25,33,35);stroke-width:2px;"/>
            <path d="M159.74,445.06L205.87,472.4C206.562,472.81 207.429,472.798 208.11,472.37L252.49,444.29C252.545,444.256 252.596,444.215 252.64,444.169C252.933,443.864 252.919,443.369 252.61,443.073C252.565,443.03 252.514,442.992 252.46,442.96C239.2,435.44 226.607,428.463 214.68,422.03C211.827,420.49 208.987,419.093 206.16,417.84C204.887,417.273 203.777,417.273 202.83,417.84C190.67,425.067 176.303,433.977 159.73,444.57C159.649,444.624 159.6,444.715 159.6,444.812C159.6,444.913 159.653,445.008 159.74,445.06" style="fill:none;fill-rule:nonzero;stroke:rgb(29,47,54);stroke-width:2px;"/>
            <path d="M294.02,524.87C294.171,524.962 294.344,525.01 294.52,525.01C295.047,525.01 295.48,524.577 295.48,524.05C295.48,524.05 295.48,524.05 295.48,524.05L295.48,432.46C295.48,432.459 295.48,432.457 295.48,432.456C295.48,431.929 295.047,431.496 294.52,431.496C294.348,431.496 294.178,431.542 294.03,431.63L271.13,445.22C270.838,445.394 270.658,445.71 270.66,446.05L270.66,510.06C270.66,510.394 270.834,510.706 271.12,510.88L294.02,524.87" style="fill:none;fill-rule:nonzero;stroke:rgb(25,33,35);stroke-width:2px;"/>
            <path d="M116.95,432.27C116.838,432.204 116.71,432.169 116.58,432.169C116.18,432.169 115.85,432.499 115.85,432.899C115.85,432.9 115.85,432.9 115.85,432.9L115.85,524.58C115.854,524.978 116.182,525.303 116.58,525.303C116.718,525.303 116.853,525.264 116.97,525.19L141.86,509.47C142.069,509.338 142.198,509.108 142.2,508.86L142.2,447.68C142.2,447.421 142.063,447.181 141.84,447.05L116.95,432.27" style="fill:none;fill-rule:nonzero;stroke:rgb(25,33,35);stroke-width:2px;"/>
            <path d="M214.28,481.08C212.2,482.41 211.96,484.39 212.62,486.83L212.62,486.89L212.65,536.29C212.651,536.679 212.971,536.998 213.36,536.998C213.487,536.998 213.611,536.964 213.72,536.9L259.01,510.03C259.276,509.876 259.44,509.59 259.44,509.28C259.46,505.873 259.313,498.517 259,487.21C258.7,476.44 259.2,466.3 259.49,453.42C259.49,453.418 259.49,453.416 259.49,453.415C259.49,453.212 259.323,453.045 259.12,453.045C259.045,453.045 258.972,453.067 258.91,453.11C244.28,463.01 227.1,472.85 214.28,481.08" style="fill:none;fill-rule:nonzero;stroke:rgb(29,47,54);stroke-width:2px;"/>
            <path d="M153.65,508.69C153.65,508.933 153.775,509.16 153.98,509.29L200.49,539.12C200.604,539.192 200.735,539.23 200.87,539.23C201.259,539.23 201.58,538.91 201.58,538.52C201.58,538.52 201.58,538.52 201.58,538.52L201.58,483.14C201.579,482.889 201.446,482.657 201.23,482.53L154.72,454.93C154.611,454.866 154.487,454.832 154.36,454.832C153.971,454.832 153.651,455.151 153.65,455.54L153.65,508.69" style="fill:none;fill-rule:nonzero;stroke:rgb(29,47,54);stroke-width:2px;"/>
            <path d="M200.83,584.04L201.62,553.36C201.639,552.595 201.241,551.873 200.58,551.47C194.44,547.74 187.22,543.96 180.83,539.72C167.87,531.14 158.84,525.09 149.41,519.78C148.239,519.125 146.797,519.183 145.69,519.93L122.43,535.57C122.207,535.718 122.072,535.969 122.072,536.237C122.072,536.53 122.233,536.8 122.49,536.94C126.397,539.06 133.977,543.59 145.23,550.53C161.69,560.69 179.833,572.067 199.66,584.66C199.782,584.739 199.925,584.78 200.07,584.78C200.48,584.78 200.819,584.449 200.83,584.04" style="fill:none;fill-rule:nonzero;stroke:rgb(25,33,35);stroke-width:2px;"/>
            <path d="M264.79,519.9C264.68,519.831 264.54,519.831 264.43,519.9L212.65,550.63C212.543,550.692 212.478,550.807 212.48,550.93L213.15,584.51C213.15,584.511 213.15,584.511 213.15,584.512C213.15,584.698 213.303,584.852 213.49,584.852C213.554,584.852 213.616,584.834 213.67,584.8L290.59,537.04C290.689,536.978 290.75,536.869 290.75,536.752C290.75,536.639 290.694,536.533 290.6,536.47L264.79,519.9" style="fill:none;fill-rule:nonzero;stroke:rgb(25,33,35);stroke-width:2px;"/>
            <path d="M304.21,415.81C306.51,417.75 306.6,420.18 306.79,423.15C306.977,426.137 307.07,432.6 307.07,442.54C307.057,466.273 307.083,495.64 307.15,530.64C307.157,534.16 306.987,536.64 306.64,538.08C305.74,541.83 302.54,543.39 298.56,545.81C272.38,561.697 254.8,572.457 245.82,578.09C228.7,588.837 218.313,595.313 214.66,597.52C208.95,600.96 205.59,601.81 199.84,598.16C163.093,574.86 133.24,556.55 110.28,543.23C106.213,540.87 104.117,537.633 103.99,533.52C103.71,524.86 103.637,508.827 103.77,485.42C103.983,447.48 104.037,427.593 103.93,425.76C103.76,422.97 104.26,418.78 106.89,416.9C110.883,414.06 117.957,409.613 128.11,403.56C133.977,400.067 144.357,393.523 159.25,383.93C173.33,374.87 186.54,366.677 198.88,359.35C206.14,355.04 211.17,360.2 217.16,363.69C225.087,368.303 232.707,372.71 240.02,376.91C243.953,379.17 251.507,383.697 262.68,390.49C279.187,400.53 290.18,407.153 295.66,410.36C300.2,413.013 303.05,414.83 304.21,415.81ZM305.58,423.89C305.4,420.96 305.31,418.56 303.04,416.64C301.893,415.673 299.077,413.877 294.59,411.25C289.177,408.083 278.313,401.537 262,391.61C250.96,384.897 243.497,380.423 239.61,378.19C232.383,374.037 224.853,369.68 217.02,365.12C211.1,361.67 206.13,356.57 198.96,360.83C186.767,368.07 173.71,376.163 159.79,385.11C145.077,394.59 134.82,401.057 129.02,404.51C118.987,410.49 111.997,414.883 108.05,417.69C105.45,419.54 104.96,423.69 105.12,426.44C105.227,428.253 105.173,447.907 104.96,485.4C104.82,508.527 104.89,524.37 105.17,532.93C105.29,536.997 107.36,540.193 111.38,542.52C134.067,555.687 163.563,573.787 199.87,596.82C205.56,600.43 208.88,599.59 214.52,596.19C218.133,594.01 228.397,587.61 245.31,576.99C254.19,571.423 271.563,560.793 297.43,545.1C301.37,542.71 304.53,541.17 305.42,537.46C305.76,536.04 305.93,533.59 305.93,530.11C305.863,495.523 305.84,466.503 305.86,443.05C305.86,433.23 305.767,426.843 305.58,423.89Z" style="fill:rgb(19,18,14);fill-rule:nonzero;"/>
            <path d="M305.58,423.89C305.767,426.843 305.86,433.23 305.86,443.05C305.84,466.503 305.863,495.523 305.93,530.11C305.93,533.59 305.76,536.04 305.42,537.46C304.53,541.17 301.37,542.71 297.43,545.1C271.563,560.793 254.19,571.423 245.31,576.99C228.397,587.61 218.133,594.01 214.52,596.19C208.88,599.59 205.56,600.43 199.87,596.82C163.563,573.787 134.067,555.687 111.38,542.52C107.36,540.193 105.29,536.997 105.17,532.93C104.89,524.37 104.82,508.527 104.96,485.4C105.173,447.907 105.227,428.253 105.12,426.44C104.96,423.69 105.45,419.54 108.05,417.69C111.997,414.883 118.987,410.49 129.02,404.51C134.82,401.057 145.077,394.59 159.79,385.11C173.71,376.163 186.767,368.07 198.96,360.83C206.13,356.57 211.1,361.67 217.02,365.12C224.853,369.68 232.383,374.037 239.61,378.19C243.497,380.423 250.96,384.897 262,391.61C278.313,401.537 289.177,408.083 294.59,411.25C299.077,413.877 301.893,415.673 303.04,416.64C305.31,418.56 305.4,420.96 305.58,423.89ZM118.82,420.85C118.784,420.87 118.751,420.895 118.722,420.924C118.537,421.105 118.531,421.401 118.708,421.582C118.738,421.613 118.772,421.639 118.81,421.66C128.303,427.073 137.497,432.537 146.39,438.05C147.99,439.04 149.46,438.93 150.93,437.95C166.323,427.717 182.16,417.977 198.44,408.73C199.427,408.17 199.93,407.183 199.95,405.77C200.11,392.537 200.097,381.107 199.91,371.48C199.899,371.098 199.582,370.79 199.2,370.79C199.066,370.79 198.934,370.828 198.82,370.9C193.7,374.193 176.707,385.003 147.84,403.33C136.813,410.323 127.14,416.163 118.82,420.85ZM291.8,420.94C291.939,420.86 292.026,420.711 292.026,420.55C292.026,420.389 291.939,420.24 291.8,420.16L209.71,371.43C209.64,371.389 209.561,371.367 209.48,371.367C209.233,371.367 209.03,371.57 209.03,371.817C209.03,371.818 209.03,371.819 209.03,371.82L209.03,406.6C209.031,406.762 209.119,406.911 209.26,406.99L263.39,437.53C263.529,437.61 263.701,437.61 263.84,437.53L291.8,420.94ZM157.93,444.91L205.82,473.34C206.539,473.763 207.436,473.751 208.14,473.31L254.26,444.18C254.316,444.145 254.368,444.103 254.414,444.056C254.719,443.739 254.706,443.226 254.385,442.917C254.338,442.872 254.286,442.833 254.23,442.8C240.463,434.98 227.39,427.723 215.01,421.03C212.043,419.43 209.093,417.977 206.16,416.67C204.84,416.083 203.687,416.083 202.7,416.67C190.067,424.163 175.14,433.407 157.92,444.4C157.835,444.455 157.783,444.55 157.783,444.652C157.783,444.758 157.839,444.856 157.93,444.91ZM296.91,527.59L296.91,429.53C296.906,429.237 296.663,428.998 296.37,428.998C296.275,428.998 296.182,429.023 296.1,429.07L270.43,444.3C269.823,444.66 269.45,445.315 269.45,446.02C269.56,466.55 269.09,489 269.89,510.21C269.921,511.004 270.345,511.732 271.02,512.15L296.6,527.77C296.617,527.781 296.635,527.789 296.654,527.794C296.759,527.823 296.872,527.756 296.902,527.645C296.907,527.627 296.91,527.608 296.91,527.59ZM114.23,430.12L114.23,528.63C114.23,528.63 114.23,528.63 114.23,528.63C114.23,528.729 114.311,528.81 114.41,528.81C114.446,528.81 114.48,528.8 114.51,528.78C115.53,528.14 116.46,527.13 117.85,526.17C125.517,520.903 133.04,516.08 140.42,511.7C142.113,510.693 142.96,509.613 142.96,508.46C142.94,495.12 143.077,475.077 143.37,448.33C143.382,447.353 142.866,446.44 142.02,445.94L114.82,429.79C114.76,429.754 114.69,429.735 114.62,429.735C114.408,429.735 114.233,429.908 114.23,430.12ZM260.08,451.1C255.593,454.233 250.93,457.31 246.09,460.33C235.53,466.917 225.03,473.493 214.59,480.06C213.46,480.77 212,481.65 211.92,482.99C211.74,486.17 211.65,488.68 211.65,490.52C211.65,520.88 211.637,537.05 211.61,539.03C211.61,539.031 211.61,539.033 211.61,539.034C211.61,539.232 211.772,539.394 211.97,539.394C212.037,539.394 212.103,539.375 212.16,539.34C227.413,529.6 243.297,520.133 259.81,510.94C260.385,510.616 260.73,509.996 260.7,509.34C259.813,490.013 259.853,470.737 260.82,451.51C260.82,451.501 260.821,451.493 260.821,451.484C260.821,451.226 260.609,451.014 260.351,451.014C260.254,451.014 260.159,451.044 260.08,451.1ZM152.48,509.06C152.479,509.327 152.615,509.576 152.84,509.72L201.26,540.78C201.385,540.86 201.531,540.903 201.68,540.903C202.108,540.903 202.46,540.551 202.46,540.123C202.46,540.122 202.46,540.121 202.46,540.12L202.46,483.08C202.462,482.808 202.322,482.553 202.09,482.41L153.67,452.83C153.547,452.754 153.405,452.714 153.26,452.714C152.832,452.714 152.48,453.066 152.48,453.494C152.48,453.496 152.48,453.498 152.48,453.5L152.48,509.06ZM201.65,587.46C201.74,587.516 201.844,587.545 201.95,587.545C202.263,587.545 202.52,587.288 202.52,586.975C202.52,586.974 202.52,586.972 202.52,586.97L202.52,552.98C202.52,552.094 202.052,551.272 201.29,550.82C191.93,545.26 185.5,541.61 176.95,535.97C165.123,528.163 156.253,522.537 150.34,519.09C148.573,518.063 146.697,518.17 144.71,519.41C136.723,524.39 128.317,529.917 119.49,535.99C119.356,536.081 119.275,536.233 119.275,536.396C119.275,536.57 119.369,536.733 119.52,536.82C139.987,548.587 161.35,561.613 183.61,575.9C195.077,583.253 201.09,587.107 201.65,587.46ZM264.89,518.69C264.788,518.622 264.656,518.618 264.55,518.68L211.7,550.05C211.603,550.106 211.543,550.208 211.54,550.32L211.54,586.84C211.54,586.843 211.54,586.846 211.54,586.849C211.54,587.025 211.684,587.169 211.86,587.169C211.92,587.169 211.979,587.152 212.03,587.12L292.68,537.06C292.772,537.001 292.828,536.899 292.828,536.79C292.828,536.681 292.772,536.579 292.68,536.52L264.89,518.69Z" style="fill:rgb(239,238,238);fill-rule:nonzero;"/>
            <path d="M118.82,420.85C127.14,416.163 136.813,410.323 147.84,403.33C176.707,385.003 193.7,374.193 198.82,370.9C198.934,370.828 199.066,370.79 199.2,370.79C199.582,370.79 199.899,371.098 199.91,371.48C200.097,381.107 200.11,392.537 199.95,405.77C199.93,407.183 199.427,408.17 198.44,408.73C182.16,417.977 166.323,427.717 150.93,437.95C149.46,438.93 147.99,439.04 146.39,438.05C137.497,432.537 128.303,427.073 118.81,421.66C118.772,421.639 118.738,421.613 118.708,421.582C118.531,421.401 118.537,421.105 118.722,420.924C118.751,420.895 118.784,420.87 118.82,420.85ZM197.28,373.46L126.23,418.32C125.805,418.592 125.348,418.807 124.87,418.96C123.723,419.347 122.727,419.903 121.88,420.63C121.698,420.784 121.593,421.01 121.593,421.249C121.593,421.531 121.74,421.793 121.98,421.94L146.96,437.19C147.723,437.656 148.658,437.745 149.49,437.43C150.41,437.083 151.473,436.51 152.68,435.71C167.267,426.023 182.377,416.763 198.01,407.93C198.581,407.61 198.932,406.998 198.92,406.34L198.28,374C198.276,373.646 197.984,373.358 197.63,373.358C197.506,373.358 197.385,373.393 197.28,373.46Z" style="fill:rgb(19,18,14);fill-rule:nonzero;"/>
            <path d="M291.8,420.94L263.84,437.53C263.701,437.61 263.529,437.61 263.39,437.53L209.26,406.99C209.119,406.911 209.031,406.762 209.03,406.6L209.03,371.82C209.03,371.819 209.03,371.818 209.03,371.817C209.03,371.57 209.233,371.367 209.48,371.367C209.561,371.367 209.64,371.389 209.71,371.43L291.8,420.16C291.939,420.24 292.026,420.389 292.026,420.55C292.026,420.711 291.939,420.86 291.8,420.94ZM288.42,421.77C288.82,421.53 289.065,421.096 289.065,420.63C289.065,420.164 288.82,419.73 288.42,419.49L212.82,374.62C212.614,374.497 212.379,374.433 212.14,374.433C211.422,374.433 210.828,375.013 210.81,375.73L210.05,405.37C210.039,405.861 210.301,406.32 210.73,406.56L263.02,436.06C263.433,436.294 263.941,436.29 264.35,436.05L288.42,421.77Z" style="fill:rgb(19,18,14);fill-rule:nonzero;"/>
            <path d="M197.28,373.46C197.385,373.393 197.506,373.358 197.63,373.358C197.984,373.358 198.276,373.646 198.28,374L198.92,406.34C198.932,406.998 198.581,407.61 198.01,407.93C182.377,416.763 167.267,426.023 152.68,435.71C151.473,436.51 150.41,437.083 149.49,437.43C148.658,437.745 147.723,437.656 146.96,437.19L121.98,421.94C121.74,421.793 121.593,421.531 121.593,421.249C121.593,421.01 121.698,420.784 121.88,420.63C122.727,419.903 123.723,419.347 124.87,418.96C125.348,418.807 125.805,418.592 126.23,418.32L197.28,373.46Z" style="fill:rgb(30,48,55);fill-rule:nonzero;"/>
            <path d="M288.42,421.77L264.35,436.05C263.941,436.29 263.433,436.294 263.02,436.06L210.73,406.56C210.301,406.32 210.039,405.861 210.05,405.37L210.81,375.73C210.828,375.013 211.422,374.433 212.14,374.433C212.379,374.433 212.614,374.497 212.82,374.62L288.42,419.49C288.82,419.73 289.065,420.164 289.065,420.63C289.065,421.096 288.82,421.53 288.42,421.77Z" style="fill:rgb(30,48,55);fill-rule:nonzero;"/>
            <path d="M157.93,444.91C157.839,444.856 157.783,444.758 157.783,444.652C157.783,444.55 157.835,444.455 157.92,444.4C175.14,433.407 190.067,424.163 202.7,416.67C203.687,416.083 204.84,416.083 206.16,416.67C209.093,417.977 212.043,419.43 215.01,421.03C227.39,427.723 240.463,434.98 254.23,442.8C254.286,442.833 254.338,442.872 254.385,442.917C254.706,443.226 254.719,443.739 254.414,444.056C254.368,444.103 254.316,444.145 254.26,444.18L208.14,473.31C207.436,473.751 206.539,473.763 205.82,473.34L157.93,444.91ZM159.74,445.06L205.87,472.4C206.562,472.81 207.429,472.798 208.11,472.37L252.49,444.29C252.545,444.256 252.596,444.215 252.64,444.169C252.933,443.864 252.919,443.369 252.61,443.073C252.565,443.03 252.514,442.992 252.46,442.96C239.2,435.44 226.607,428.463 214.68,422.03C211.827,420.49 208.987,419.093 206.16,417.84C204.887,417.273 203.777,417.273 202.83,417.84C190.67,425.067 176.303,433.977 159.73,444.57C159.649,444.624 159.6,444.715 159.6,444.812C159.6,444.913 159.653,445.008 159.74,445.06Z" style="fill:rgb(19,18,14);fill-rule:nonzero;"/>
            <path d="M159.74,445.06C159.653,445.008 159.6,444.913 159.6,444.812C159.6,444.715 159.649,444.624 159.73,444.57C176.303,433.977 190.67,425.067 202.83,417.84C203.777,417.273 204.887,417.273 206.16,417.84C208.987,419.093 211.827,420.49 214.68,422.03C226.607,428.463 239.2,435.44 252.46,442.96C252.514,442.992 252.565,443.03 252.61,443.073C252.919,443.369 252.933,443.864 252.64,444.169C252.596,444.215 252.545,444.256 252.49,444.29L208.11,472.37C207.429,472.798 206.562,472.81 205.87,472.4L159.74,445.06Z" style="fill:rgb(39,76,93);fill-rule:nonzero;"/>
            <path d="M296.91,527.59C296.91,527.608 296.907,527.627 296.902,527.645C296.872,527.756 296.759,527.823 296.654,527.794C296.635,527.789 296.617,527.781 296.6,527.77L271.02,512.15C270.345,511.732 269.921,511.004 269.89,510.21C269.09,489 269.56,466.55 269.45,446.02C269.45,445.315 269.823,444.66 270.43,444.3L296.1,429.07C296.182,429.023 296.275,428.998 296.37,428.998C296.663,428.998 296.906,429.237 296.91,429.53L296.91,527.59ZM294.02,524.87C294.171,524.962 294.344,525.01 294.52,525.01C295.047,525.01 295.48,524.577 295.48,524.05C295.48,524.05 295.48,524.05 295.48,524.05L295.48,432.46C295.48,432.459 295.48,432.457 295.48,432.456C295.48,431.929 295.047,431.496 294.52,431.496C294.348,431.496 294.178,431.542 294.03,431.63L271.13,445.22C270.838,445.394 270.658,445.71 270.66,446.05L270.66,510.06C270.66,510.394 270.834,510.706 271.12,510.88L294.02,524.87Z" style="fill:rgb(19,18,14);fill-rule:nonzero;"/>
            <path d="M114.23,430.12C114.233,429.908 114.408,429.735 114.62,429.735C114.69,429.735 114.76,429.754 114.82,429.79L142.02,445.94C142.866,446.44 143.382,447.353 143.37,448.33C143.077,475.077 142.94,495.12 142.96,508.46C142.96,509.613 142.113,510.693 140.42,511.7C133.04,516.08 125.517,520.903 117.85,526.17C116.46,527.13 115.53,528.14 114.51,528.78C114.48,528.8 114.446,528.81 114.41,528.81C114.311,528.81 114.23,528.729 114.23,528.63C114.23,528.63 114.23,528.63 114.23,528.63L114.23,430.12ZM116.95,432.27C116.838,432.204 116.71,432.169 116.58,432.169C116.18,432.169 115.85,432.499 115.85,432.899C115.85,432.9 115.85,432.9 115.85,432.9L115.85,524.58C115.854,524.978 116.182,525.303 116.58,525.303C116.718,525.303 116.853,525.264 116.97,525.19L141.86,509.47C142.069,509.338 142.198,509.108 142.2,508.86L142.2,447.68C142.2,447.421 142.063,447.181 141.84,447.05L116.95,432.27Z" style="fill:rgb(19,18,14);fill-rule:nonzero;"/>
            <path d="M294.02,524.87L271.12,510.88C270.834,510.706 270.66,510.394 270.66,510.06L270.66,446.05C270.658,445.71 270.838,445.394 271.13,445.22L294.03,431.63C294.178,431.542 294.348,431.496 294.52,431.496C295.047,431.496 295.48,431.929 295.48,432.456C295.48,432.457 295.48,432.459 295.48,432.46L295.48,524.05C295.48,524.05 295.48,524.05 295.48,524.05C295.48,524.577 295.047,525.01 294.52,525.01C294.344,525.01 294.171,524.962 294.02,524.87Z" style="fill:rgb(30,48,55);fill-rule:nonzero;"/>
            <path d="M116.95,432.27L141.84,447.05C142.063,447.181 142.2,447.421 142.2,447.68L142.2,508.86C142.198,509.108 142.069,509.338 141.86,509.47L116.97,525.19C116.853,525.264 116.718,525.303 116.58,525.303C116.182,525.303 115.854,524.978 115.85,524.58L115.85,432.9C115.85,432.9 115.85,432.9 115.85,432.899C115.85,432.499 116.18,432.169 116.58,432.169C116.71,432.169 116.838,432.204 116.95,432.27Z" style="fill:rgb(30,48,55);fill-rule:nonzero;"/>
            <path d="M260.08,451.1C260.159,451.044 260.254,451.014 260.351,451.014C260.609,451.014 260.821,451.226 260.821,451.484C260.821,451.493 260.82,451.501 260.82,451.51C259.853,470.737 259.813,490.013 260.7,509.34C260.73,509.996 260.385,510.616 259.81,510.94C243.297,520.133 227.413,529.6 212.16,539.34C212.103,539.375 212.037,539.394 211.97,539.394C211.772,539.394 211.61,539.232 211.61,539.034C211.61,539.033 211.61,539.031 211.61,539.03C211.637,537.05 211.65,520.88 211.65,490.52C211.65,488.68 211.74,486.17 211.92,482.99C212,481.65 213.46,480.77 214.59,480.06C225.03,473.493 235.53,466.917 246.09,460.33C250.93,457.31 255.593,454.233 260.08,451.1ZM214.28,481.08C212.2,482.41 211.96,484.39 212.62,486.83L212.62,486.89L212.65,536.29C212.651,536.679 212.971,536.998 213.36,536.998C213.487,536.998 213.611,536.964 213.72,536.9L259.01,510.03C259.276,509.876 259.44,509.59 259.44,509.28C259.46,505.873 259.313,498.517 259,487.21C258.7,476.44 259.2,466.3 259.49,453.42C259.49,453.418 259.49,453.416 259.49,453.415C259.49,453.212 259.323,453.045 259.12,453.045C259.045,453.045 258.972,453.067 258.91,453.11C244.28,463.01 227.1,472.85 214.28,481.08Z" style="fill:rgb(19,18,14);fill-rule:nonzero;"/>
            <path d="M152.48,509.06L152.48,453.5C152.48,453.498 152.48,453.496 152.48,453.494C152.48,453.066 152.832,452.714 153.26,452.714C153.405,452.714 153.547,452.754 153.67,452.83L202.09,482.41C202.322,482.553 202.462,482.808 202.46,483.08L202.46,540.12C202.46,540.121 202.46,540.122 202.46,540.123C202.46,540.551 202.108,540.903 201.68,540.903C201.531,540.903 201.385,540.86 201.26,540.78L152.84,509.72C152.615,509.576 152.479,509.327 152.48,509.06ZM153.65,508.69C153.65,508.933 153.775,509.16 153.98,509.29L200.49,539.12C200.604,539.192 200.735,539.23 200.87,539.23C201.259,539.23 201.58,538.91 201.58,538.52C201.58,538.52 201.58,538.52 201.58,538.52L201.58,483.14C201.579,482.889 201.446,482.657 201.23,482.53L154.72,454.93C154.611,454.866 154.487,454.832 154.36,454.832C153.971,454.832 153.651,455.151 153.65,455.54L153.65,508.69Z" style="fill:rgb(19,18,14);fill-rule:nonzero;"/>
            <path d="M212.62,486.83C211.96,484.39 212.2,482.41 214.28,481.08C227.1,472.85 244.28,463.01 258.91,453.11C258.972,453.067 259.045,453.045 259.12,453.045C259.323,453.045 259.49,453.212 259.49,453.415C259.49,453.416 259.49,453.418 259.49,453.42C259.2,466.3 258.7,476.44 259,487.21C259.313,498.517 259.46,505.873 259.44,509.28C259.44,509.59 259.276,509.876 259.01,510.03L213.72,536.9C213.611,536.964 213.487,536.998 213.36,536.998C212.971,536.998 212.651,536.679 212.65,536.29L212.62,486.89L212.62,486.83Z" style="fill:rgb(39,76,93);fill-rule:nonzero;"/>
            <path d="M153.65,508.69L153.65,455.54C153.651,455.151 153.971,454.832 154.36,454.832C154.487,454.832 154.611,454.866 154.72,454.93L201.23,482.53C201.446,482.657 201.579,482.889 201.58,483.14L201.58,538.52C201.58,538.52 201.58,538.52 201.58,538.52C201.58,538.91 201.259,539.23 200.87,539.23C200.735,539.23 200.604,539.192 200.49,539.12L153.98,509.29C153.775,509.16 153.65,508.933 153.65,508.69Z" style="fill:rgb(39,76,93);fill-rule:nonzero;"/>
            <path d="M201.65,587.46C201.09,587.107 195.077,583.253 183.61,575.9C161.35,561.613 139.987,548.587 119.52,536.82C119.369,536.733 119.275,536.57 119.275,536.396C119.275,536.233 119.356,536.081 119.49,535.99C128.317,529.917 136.723,524.39 144.71,519.41C146.697,518.17 148.573,518.063 150.34,519.09C156.253,522.537 165.123,528.163 176.95,535.97C185.5,541.61 191.93,545.26 201.29,550.82C202.052,551.272 202.52,552.094 202.52,552.98L202.52,586.97C202.52,586.972 202.52,586.974 202.52,586.975C202.52,587.288 202.263,587.545 201.95,587.545C201.844,587.545 201.74,587.516 201.65,587.46ZM200.83,584.04L201.62,553.36C201.639,552.595 201.241,551.873 200.58,551.47C194.44,547.74 187.22,543.96 180.83,539.72C167.87,531.14 158.84,525.09 149.41,519.78C148.239,519.125 146.797,519.183 145.69,519.93L122.43,535.57C122.207,535.718 122.072,535.969 122.072,536.237C122.072,536.53 122.233,536.8 122.49,536.94C126.397,539.06 133.977,543.59 145.23,550.53C161.69,560.69 179.833,572.067 199.66,584.66C199.782,584.739 199.925,584.78 200.07,584.78C200.48,584.78 200.819,584.449 200.83,584.04Z" style="fill:rgb(19,18,14);fill-rule:nonzero;"/>
            <path d="M200.83,584.04C200.819,584.449 200.48,584.78 200.07,584.78C199.925,584.78 199.782,584.739 199.66,584.66C179.833,572.067 161.69,560.69 145.23,550.53C133.977,543.59 126.397,539.06 122.49,536.94C122.233,536.8 122.072,536.53 122.072,536.237C122.072,535.969 122.207,535.718 122.43,535.57L145.69,519.93C146.797,519.183 148.239,519.125 149.41,519.78C158.84,525.09 167.87,531.14 180.83,539.72C187.22,543.96 194.44,547.74 200.58,551.47C201.241,551.873 201.639,552.595 201.62,553.36L200.83,584.04Z" style="fill:rgb(30,48,55);fill-rule:nonzero;"/>
            <path d="M264.89,518.69L292.68,536.52C292.772,536.579 292.828,536.681 292.828,536.79C292.828,536.899 292.772,537.001 292.68,537.06L212.03,587.12C211.979,587.152 211.92,587.169 211.86,587.169C211.684,587.169 211.54,587.025 211.54,586.849C211.54,586.846 211.54,586.843 211.54,586.84L211.54,550.32C211.543,550.208 211.603,550.106 211.7,550.05L264.55,518.68C264.656,518.618 264.788,518.622 264.89,518.69ZM264.79,519.9C264.68,519.831 264.54,519.831 264.43,519.9L212.65,550.63C212.543,550.692 212.478,550.807 212.48,550.93L213.15,584.51C213.15,584.511 213.15,584.511 213.15,584.512C213.15,584.698 213.303,584.852 213.49,584.852C213.554,584.852 213.616,584.834 213.67,584.8L290.59,537.04C290.689,536.978 290.75,536.869 290.75,536.752C290.75,536.639 290.694,536.533 290.6,536.47L264.79,519.9Z" style="fill:rgb(19,18,14);fill-rule:nonzero;"/>
            <path d="M264.79,519.9L290.6,536.47C290.694,536.533 290.75,536.639 290.75,536.752C290.75,536.869 290.689,536.978 290.59,537.04L213.67,584.8C213.616,584.834 213.554,584.852 213.49,584.852C213.303,584.852 213.15,584.698 213.15,584.512C213.15,584.511 213.15,584.511 213.15,584.51L212.48,550.93C212.478,550.807 212.543,550.692 212.65,550.63L264.43,519.9C264.54,519.831 264.68,519.831 264.79,519.9Z" style="fill:rgb(30,48,55);fill-rule:nonzero;"/>
        </g>
    </g>
</svg>
